<?xml version="1.0" encoding="UTF-8" standalone="no"?>
<svg
   xmlns:dc="http://purl.org/dc/elements/1.1/"
   xmlns:cc="http://creativecommons.org/ns#"
   xmlns:rdf="http://www.w3.org/1999/02/22-rdf-syntax-ns#"
   xmlns:svg="http://www.w3.org/2000/svg"
   xmlns="http://www.w3.org/2000/svg"
   viewBox="0 0 793.70068 1122.5197"
   height="1122.5197"
   width="793.70068"
   xml:space="preserve"
   id="svg2"
   version="1.1"><metadata
     id="metadata8"><rdf:RDF><cc:Work
         rdf:about=""><dc:format>image/svg+xml</dc:format><dc:type
           rdf:resource="http://purl.org/dc/dcmitype/StillImage" /></cc:Work></rdf:RDF></metadata><defs
     id="defs6"><clipPath
       id="clipPath20"
       clipPathUnits="userSpaceOnUse"><path
         id="path18"
         d="M 0,0 H 595.28 V 841.89 H 0 Z" /></clipPath><clipPath
       id="clipPath30"
       clipPathUnits="userSpaceOnUse"><path
         id="path28"
         d="m 501.1193,680.3394 -21.2587,-21.2587 -2.8284,2.8285 21.2587,21.2586 z" /></clipPath><clipPath
       id="clipPath36"
       clipPathUnits="userSpaceOnUse"><path
         id="path34"
         d="M 0,0 H 595.28 V 841.89 H 0 Z" /></clipPath><clipPath
       id="clipPath48"
       clipPathUnits="userSpaceOnUse"><path
         id="path46"
         d="m 507.3984,680.7536 h 59.76405 v 4 H 507.3984 Z" /></clipPath><clipPath
       id="clipPath60"
       clipPathUnits="userSpaceOnUse"><path
         id="path58"
         d="m 494.8582,674.7411 h 15.84688 v 16.025 H 494.8582 Z" /></clipPath><clipPath
       id="clipPath74"
       clipPathUnits="userSpaceOnUse"><path
         id="path72"
         d="m 461.8552,643.5194 h 20.94062 v 21.96875 H 461.8552 Z" /></clipPath><clipPath
       id="clipPath88"
       clipPathUnits="userSpaceOnUse"><path
         id="path86"
         d="m 501.7817,625.2472 h 30.88202 v 4 H 501.7817 Z" /></clipPath><clipPath
       id="clipPath100"
       clipPathUnits="userSpaceOnUse"><path
         id="path98"
         d="m 515.3451,736.7061 53.5383,-53.5383 -2.8285,-2.8284 -53.5383,53.5383 z" /></clipPath><clipPath
       id="clipPath106"
       clipPathUnits="userSpaceOnUse"><path
         id="path104"
         d="M 0,0 H 595.28 V 841.89 H 0 Z" /></clipPath><clipPath
       id="clipPath118"
       clipPathUnits="userSpaceOnUse"><path
         id="path116"
         d="m 480.7959,614.9942 h 25.53269 v 24.50596 H 480.7959 Z" /></clipPath><clipPath
       id="clipPath132"
       clipPathUnits="userSpaceOnUse"><path
         id="path130"
         d="M 565.1624,680.7536 H 595.28 v 4 h -30.1176 z" /></clipPath><clipPath
       id="clipPath144"
       clipPathUnits="userSpaceOnUse"><path
         id="path142"
         d="m 478.2076,724.087 h 42.9949 v 44.30312 h -42.9949 z" /></clipPath><clipPath
       id="clipPath158"
       clipPathUnits="userSpaceOnUse"><path
         id="path156"
         d="m 529.0059,627.2161 41.7869,56.9354 3.2247,-2.3667 -41.7869,-56.9354 z" /></clipPath><clipPath
       id="clipPath164"
       clipPathUnits="userSpaceOnUse"><path
         id="path162"
         d="M 0,0 H 595.28 V 841.89 H 0 Z" /></clipPath><clipPath
       id="clipPath176"
       clipPathUnits="userSpaceOnUse"><path
         id="path174"
         d="m 445.0736,688.7661 h 22.07609 v 23.02618 H 445.0736 Z" /></clipPath><clipPath
       id="clipPath190"
       clipPathUnits="userSpaceOnUse"><path
         id="path188"
         d="m 462.8475,697.6663 36.3029,-12.0025 -1.2556,-3.7979 -36.303,12.0026 z" /></clipPath><clipPath
       id="clipPath196"
       clipPathUnits="userSpaceOnUse"><path
         id="path194"
         d="M 0,0 H 595.28 V 841.89 H 0 Z" /></clipPath><clipPath
       id="clipPath208"
       clipPathUnits="userSpaceOnUse"><path
         id="path206"
         d="m 425.1566,618.2378 h 17.48709 v 18.01875 H 425.1566 Z" /></clipPath><clipPath
       id="clipPath222"
       clipPathUnits="userSpaceOnUse"><path
         id="path220"
         d="m 440.6437,625.2472 h 42.15219 v 4 H 440.6437 Z" /></clipPath><clipPath
       id="clipPath234"
       clipPathUnits="userSpaceOnUse"><path
         id="path232"
         d="m 0,670.1243 h 47.45708 v 4 H 0 Z" /></clipPath><clipPath
       id="clipPath246"
       clipPathUnits="userSpaceOnUse"><path
         id="path244"
         d="m 45.45708,657.0417 h 30.65376 v 30.1651 H 45.45708 Z" /></clipPath><clipPath
       id="clipPath260"
       clipPathUnits="userSpaceOnUse"><path
         id="path258"
         d="M 70.78396,665.6095 83.091,653.3024 80.26258,650.474 67.95553,662.781 Z" /></clipPath><clipPath
       id="clipPath266"
       clipPathUnits="userSpaceOnUse"><path
         id="path264"
         d="M 0,0 H 595.28 V 841.89 H 0 Z" /></clipPath><clipPath
       id="clipPath278"
       clipPathUnits="userSpaceOnUse"><path
         id="path276"
         d="m 76.25616,639.4788 h 15.84688 v 16.025 H 76.25616 Z" /></clipPath><clipPath
       id="clipPath292"
       clipPathUnits="userSpaceOnUse"><path
         id="path290"
         d="m 68.66264,680.6672 21.02619,21.0262 2.82842,-2.8284 -21.02618,-21.0262 z" /></clipPath><clipPath
       id="clipPath298"
       clipPathUnits="userSpaceOnUse"><path
         id="path296"
         d="M 0,0 H 595.28 V 841.89 H 0 Z" /></clipPath><clipPath
       id="clipPath310"
       clipPathUnits="userSpaceOnUse"><path
         id="path308"
         d="m 82.0797,690.9378 h 18.04669 v 18.68274 H 82.0797 Z" /></clipPath><clipPath
       id="clipPath324"
       clipPathUnits="userSpaceOnUse"><path
         id="path322"
         d="m 483.6113,730.1517 h 32.18755 v 32.1737 H 483.6113 Z" /></clipPath><clipPath
       id="clipPath338"
       clipPathUnits="userSpaceOnUse"><path
         id="path336"
         d="m 484.8187,618.2378 h 17.48709 v 18.01875 H 484.8187 Z" /></clipPath><clipPath
       id="clipPath352"
       clipPathUnits="userSpaceOnUse"><path
         id="path350"
         d="M 49.44681,661.0062 H 72.1211 v 22.23608 H 49.44681 Z" /></clipPath><clipPath
       id="clipPath366"
       clipPathUnits="userSpaceOnUse"><path
         id="path364"
         d="m 84.62215,702.6466 -21.02619,21.0261 2.82843,2.8285 21.02618,-21.0262 z" /></clipPath><clipPath
       id="clipPath372"
       clipPathUnits="userSpaceOnUse"><path
         id="path370"
         d="M 0,0 H 595.28 V 841.89 H 0 Z" /></clipPath><clipPath
       id="clipPath384"
       clipPathUnits="userSpaceOnUse"><path
         id="path382"
         d="m 45.45708,719.2051 h 32.79908 v 32.1737 H 45.45708 Z" /></clipPath><clipPath
       id="clipPath398"
       clipPathUnits="userSpaceOnUse"><path
         id="path396"
         d="m 50.22651,723.0928 h 23.26023 v 24.14573 H 50.22651 Z" /></clipPath><clipPath
       id="clipPath412"
       clipPathUnits="userSpaceOnUse"><path
         id="path410"
         d="M 300.64,535.9139 V 240.9086 h -4 v 295.0053 z" /></clipPath><clipPath
       id="clipPath418"
       clipPathUnits="userSpaceOnUse"><path
         id="path416"
         d="M 0,0 H 595.28 V 841.89 H 0 Z" /></clipPath><clipPath
       id="clipPath430"
       clipPathUnits="userSpaceOnUse"><path
         id="path428"
         d="M 494.5622,535.9139 V 240.9086 h -4 v 295.0053 z" /></clipPath><clipPath
       id="clipPath436"
       clipPathUnits="userSpaceOnUse"><path
         id="path434"
         d="M 0,0 H 595.28 V 841.89 H 0 Z" /></clipPath><clipPath
       id="clipPath448"
       clipPathUnits="userSpaceOnUse"><path
         id="path446"
         d="M 107.4597,529.2472 V 240.9086 h -4 v 288.3386 z" /></clipPath><clipPath
       id="clipPath454"
       clipPathUnits="userSpaceOnUse"><path
         id="path452"
         d="M 0,0 H 595.28 V 841.89 H 0 Z" /></clipPath></defs><g
     transform="matrix(1.3333333,0,0,-1.3333333,0,1122.5197)"
     id="g10"><g
       id="g12" /><g
       id="g14"><g
         clip-path="url(#clipPath20)"
         id="g16"><path
           id="path22"
           style="fill:#ffffff;fill-opacity:1;fill-rule:nonzero;stroke:none"
           d="M 0,841.89 H 596 V -0.1099854 H 0 Z" /></g></g><g
       id="g24"><g
         clip-path="url(#clipPath30)"
         id="g26"><g
           clip-path="url(#clipPath36)"
           id="g32"><g
             transform="matrix(-0.7071068,-0.7071068,-0.7071068,0.7071068,498.998,681.0465)"
             id="g38"><path
               id="path40"
               style="fill:none;stroke:#ff644e;stroke-width:2;stroke-linecap:butt;stroke-linejoin:miter;stroke-miterlimit:4;stroke-dasharray:none;stroke-opacity:1"
               d="M 0,0 H 28.06432" /></g></g></g></g><g
       id="g42"><g
         clip-path="url(#clipPath48)"
         id="g44"><g
           transform="matrix(1,0,0,-1,508.3984,682.7536)"
           id="g50"><path
             id="path52"
             style="fill:none;stroke:#ff644e;stroke-width:2;stroke-linecap:butt;stroke-linejoin:miter;stroke-miterlimit:4;stroke-dasharray:none;stroke-opacity:1"
             d="M 0,0 H 57.76405" /></g></g></g><g
       id="g54"><g
         clip-path="url(#clipPath60)"
         id="g56"><path
           id="path62"
           style="fill:#ffffff;fill-opacity:1;fill-rule:nonzero;stroke:none"
           d="m 506.9701,687.0051 c 2.3133,-2.348 2.3133,-6.1549 0,-8.503 -2.3132,-2.348 -6.0637,-2.348 -8.377,0 -2.3132,2.3481 -2.3132,6.155 0,8.503 2.3133,2.348 6.0638,2.348 8.377,0 z" /><g
           transform="matrix(1,0,0,-1,496.8582,688.7661)"
           id="g64"><path
             id="path66"
             style="fill:none;stroke:#ff644e;stroke-width:2;stroke-linecap:butt;stroke-linejoin:miter;stroke-miterlimit:4;stroke-dasharray:none;stroke-opacity:1"
             d="m 10.11194,1.76102 c 2.31325,2.348028 2.31325,6.154932 0,8.50296 -2.313246,2.34803 -6.063759,2.34803 -8.377005,0 -2.3132466,-2.348028 -2.3132466,-6.154932 0,-8.50296 2.313246,-2.3480268 6.063759,-2.3480268 8.377005,0 z" /></g></g></g><g
       id="g68"><g
         clip-path="url(#clipPath74)"
         id="g70"><path
           id="path76"
           style="fill:#ffffff;fill-opacity:1;fill-rule:nonzero;stroke:none"
           d="m 478.3149,660.8567 c 3.3079,-3.5086 3.3079,-9.1972 0,-12.7058 -3.3078,-3.5087 -8.6709,-3.5087 -11.9788,0 -3.3079,3.5086 -3.3079,9.1972 0,12.7058 3.3079,3.5086 8.671,3.5086 11.9788,0 z" /><g
           transform="matrix(1,0,0,-1,463.8552,663.4881)"
           id="g78"><path
             id="path80"
             style="fill:none;stroke:#ff644e;stroke-width:2;stroke-linecap:butt;stroke-linejoin:miter;stroke-miterlimit:4;stroke-dasharray:none;stroke-opacity:1"
             d="m 14.45973,2.631462 c 3.30786,3.508617 3.30786,9.197208 0,12.705828 -3.30786,3.50861 -8.67097,3.50861 -11.978833,0 -3.3078623,-3.50862 -3.3078623,-9.197211 0,-12.705828 3.307863,-3.5086164 8.670973,-3.5086164 11.978833,0 z" /></g></g></g><g
       id="g82"><g
         clip-path="url(#clipPath88)"
         id="g84"><g
           transform="matrix(1,0,0,-1,502.7817,627.2472)"
           id="g90"><path
             id="path92"
             style="fill:none;stroke:#ff644e;stroke-width:2;stroke-linecap:butt;stroke-linejoin:miter;stroke-miterlimit:4;stroke-dasharray:none;stroke-opacity:1"
             d="M 0,0 H 28.88202" /></g></g></g><g
       id="g94"><g
         clip-path="url(#clipPath100)"
         id="g96"><g
           clip-path="url(#clipPath106)"
           id="g102"><g
             transform="matrix(0.7071068,-0.7071068,-0.7071068,-0.7071068,514.638,734.5848)"
             id="g108"><path
               id="path110"
               style="fill:none;stroke:#ff644e;stroke-width:2;stroke-linecap:butt;stroke-linejoin:miter;stroke-miterlimit:4;stroke-dasharray:none;stroke-opacity:1"
               d="M 0,0 H 73.71457" /></g></g></g></g><g
       id="g112"><g
         clip-path="url(#clipPath118)"
         id="g114"><path
           id="path120"
           style="fill:#ffffff;fill-opacity:1;fill-rule:nonzero;stroke:none"
           d="m 501.1752,634.4972 c 4.2045,-4.0041 4.2045,-10.4959 0,-14.4999 -4.2046,-4.0041 -11.0214,-4.0041 -15.226,0 -4.2045,4.004 -4.2045,10.4958 0,14.4999 4.2046,4.004 11.0214,4.004 15.226,0 z" /><g
           transform="matrix(1,0,0,-1,482.7959,637.5002)"
           id="g122"><path
             id="path124"
             style="fill:none;stroke:#ff644e;stroke-width:2;stroke-linecap:butt;stroke-linejoin:miter;stroke-miterlimit:4;stroke-dasharray:none;stroke-opacity:1"
             d="m 18.3793,3.003028 c 4.20452,4.004037 4.20452,10.495862 0,14.499902 -4.20452,4.00404 -11.021391,4.00404 -15.22591,0 -4.20452,-4.00404 -4.20452,-10.495865 0,-14.499902 4.204519,-4.004037 11.02139,-4.004037 15.22591,0 z" /></g></g></g><g
       id="g126"><g
         clip-path="url(#clipPath132)"
         id="g128"><g
           transform="matrix(1,0,0,-1,566.1624,682.7536)"
           id="g134"><path
             id="path136"
             style="fill:none;stroke:#ff644e;stroke-width:2;stroke-linecap:butt;stroke-linejoin:miter;stroke-miterlimit:4;stroke-dasharray:none;stroke-opacity:1"
             d="M 0,0 H 57.76405" /></g></g></g><g
       id="g138"><g
         clip-path="url(#clipPath144)"
         id="g140"><path
           id="path146"
           style="fill:#ffffff;fill-opacity:1;fill-rule:nonzero;stroke:none"
           d="m 513.4919,731.9892 c 7.6142,7.8697 7.6142,20.6289 0,28.4986 -7.6143,7.8697 -19.9594,7.8697 -27.5736,0 -7.6142,-7.8697 -7.6142,-20.6289 0,-28.4986 7.6142,-7.8697 19.9593,-7.8697 27.5736,0 z" /><g
           transform="matrix(1,0,0,-1,480.2076,766.3901)"
           id="g148"><path
             id="path150"
             style="fill:none;stroke:#ff644e;stroke-width:2;stroke-linecap:butt;stroke-linejoin:miter;stroke-miterlimit:4;stroke-dasharray:none;stroke-opacity:1"
             d="m 33.28423,34.40087 c 7.61423,-7.86968 7.61423,-20.62894 0,-28.498614 -7.61423,-7.869674 -19.95933,-7.869674 -27.573559,0 -7.614228,7.869674 -7.614228,20.628934 0,28.498614 7.614229,7.86967 19.959329,7.86967 27.573559,0 z" /></g></g></g><g
       id="g152"><g
         clip-path="url(#clipPath158)"
         id="g154"><g
           clip-path="url(#clipPath164)"
           id="g160"><g
             transform="matrix(0.591679,0.8061737,0.8061737,-0.591679,531.2099,626.8389)"
             id="g166"><path
               id="path168"
               style="fill:none;stroke:#ff644e;stroke-width:2;stroke-linecap:butt;stroke-linejoin:miter;stroke-miterlimit:4;stroke-dasharray:none;stroke-opacity:1"
               d="M 0,0 H 68.62424" /></g></g></g></g><g
       id="g170"><g
         clip-path="url(#clipPath176)"
         id="g172"><path
           id="path178"
           style="fill:#ffffff;fill-opacity:1;fill-rule:nonzero;stroke:none"
           d="m 462.5025,693.5524 c 3.5296,3.7151 3.5296,9.7385 0,13.4536 -3.5295,3.7151 -9.2521,3.7151 -12.7817,0 -3.5296,-3.7151 -3.5296,-9.7385 0,-13.4536 3.5296,-3.715 9.2522,-3.715 12.7817,0 z" /><g
           transform="matrix(1,0,0,-1,447.0736,709.7923)"
           id="g180"><path
             id="path182"
             style="fill:none;stroke:#ff644e;stroke-width:2;stroke-linecap:butt;stroke-linejoin:miter;stroke-miterlimit:4;stroke-dasharray:none;stroke-opacity:1"
             d="m 15.42891,16.23986 c 3.52958,-3.71509 3.52958,-9.738448 0,-13.453541 -3.52958,-3.715092 -9.25215,-3.715092 -12.781727,0 -3.5295772,3.715093 -3.5295772,9.738451 0,13.453541 3.529577,3.71509 9.252147,3.71509 12.781727,0 z" /></g></g></g><g
       id="g184"><g
         clip-path="url(#clipPath190)"
         id="g186"><g
           clip-path="url(#clipPath196)"
           id="g192"><g
             transform="matrix(0.9494528,-0.3139098,-0.3139098,-0.9494528,463.1691,695.4535)"
             id="g198"><path
               id="path200"
               style="fill:none;stroke:#ff644e;stroke-width:2;stroke-linecap:butt;stroke-linejoin:miter;stroke-miterlimit:4;stroke-dasharray:none;stroke-opacity:1"
               d="M 0,0 H 36.23565" /></g></g></g></g><g
       id="g202"><g
         clip-path="url(#clipPath208)"
         id="g204"><path
           id="path210"
           style="fill:#ffffff;fill-opacity:1;fill-rule:nonzero;stroke:none"
           d="m 438.6685,622.2908 c 2.6335,2.7374 2.6335,7.1755 0,9.9128 -2.6335,2.7373 -6.9033,2.7373 -9.5368,0 -2.6335,-2.7373 -2.6335,-7.1754 0,-9.9128 2.6335,-2.7373 6.9033,-2.7373 9.5368,0 z" /><g
           transform="matrix(1,0,0,-1,427.1566,634.2566)"
           id="g212"><path
             id="path214"
             style="fill:none;stroke:#ff644e;stroke-width:2;stroke-linecap:butt;stroke-linejoin:miter;stroke-miterlimit:4;stroke-dasharray:none;stroke-opacity:1"
             d="m 11.51195,11.96575 c 2.63352,-2.737331 2.63352,-7.175421 0,-9.912752 -2.633516,-2.7373307 -6.903293,-2.7373307 -9.536811,0 -2.6335186,2.737331 -2.6335186,7.175421 0,9.912752 2.633518,2.73733 6.903295,2.73733 9.536811,0 z" /></g></g></g><g
       id="g216"><g
         clip-path="url(#clipPath222)"
         id="g218"><g
           transform="matrix(1,0,0,-1,441.6437,627.2472)"
           id="g224"><path
             id="path226"
             style="fill:none;stroke:#ff644e;stroke-width:2;stroke-linecap:butt;stroke-linejoin:miter;stroke-miterlimit:4;stroke-dasharray:none;stroke-opacity:1"
             d="M 0,0 H 40.15219" /></g></g></g><g
       id="g228"><g
         clip-path="url(#clipPath234)"
         id="g230"><g
           transform="matrix(1,0,0,-1,0,672.1243)"
           id="g236"><path
             id="path238"
             style="fill:none;stroke:#ff644e;stroke-width:2;stroke-linecap:butt;stroke-linejoin:miter;stroke-miterlimit:4;stroke-dasharray:none;stroke-opacity:1"
             d="M 0,0 H 46.45708" /></g></g></g><g
       id="g240"><g
         clip-path="url(#clipPath246)"
         id="g242"><path
           id="path248"
           style="fill:#ffffff;fill-opacity:1;fill-rule:nonzero;stroke:none"
           d="m 70.20749,662.8735 c 5.20446,5.1091 5.20446,13.3925 0,18.5015 -5.20448,5.1091 -13.64259,5.1091 -18.84706,0 -5.20447,-5.109 -5.20447,-13.3924 0,-18.5015 5.20447,-5.109 13.64258,-5.109 18.84706,0 z" /><g
           transform="matrix(1,0,0,-1,47.45708,685.2068)"
           id="g250"><path
             id="path252"
             style="fill:none;stroke:#ff644e;stroke-width:2;stroke-linecap:butt;stroke-linejoin:miter;stroke-miterlimit:4;stroke-dasharray:none;stroke-opacity:1"
             d="m 22.75041,22.33331 c 5.20446,-5.10905 5.20446,-13.392465 0,-18.50152 -5.20448,-5.109053 -13.642588,-5.109053 -18.847058,0 -5.204469,5.109055 -5.204469,13.39247 0,18.50152 5.20447,5.10906 13.642578,5.10906 18.847058,0 z" /></g></g></g><g
       id="g254"><g
         clip-path="url(#clipPath260)"
         id="g256"><g
           clip-path="url(#clipPath266)"
           id="g262"><g
             transform="matrix(0.7071068,-0.7071068,-0.7071068,-0.7071068,70.07685,663.4881)"
             id="g268"><path
               id="path270"
               style="fill:none;stroke:#ff644e;stroke-width:2;stroke-linecap:butt;stroke-linejoin:miter;stroke-miterlimit:4;stroke-dasharray:none;stroke-opacity:1"
               d="M 0,0 H 15.40479" /></g></g></g></g><g
       id="g272"><g
         clip-path="url(#clipPath278)"
         id="g274"><path
           id="path280"
           style="fill:#ffffff;fill-opacity:1;fill-rule:nonzero;stroke:none"
           d="m 88.3681,651.7427 c 2.31325,-2.348 2.31325,-6.1549 0,-8.5029 -2.31324,-2.348 -6.06375,-2.348 -8.377,0 -2.31325,2.348 -2.31325,6.1549 0,8.5029 2.31325,2.3481 6.06376,2.3481 8.377,0 z" /><g
           transform="matrix(1,0,0,-1,78.25616,653.5038)"
           id="g282"><path
             id="path284"
             style="fill:none;stroke:#ff644e;stroke-width:2;stroke-linecap:butt;stroke-linejoin:miter;stroke-miterlimit:4;stroke-dasharray:none;stroke-opacity:1"
             d="m 10.11194,1.76102 c 2.31325,2.348028 2.31325,6.154932 0,8.50296 -2.313246,2.34803 -6.063759,2.34803 -8.377005,0 -2.3132466,-2.348028 -2.3132466,-6.154932 0,-8.50296 2.313246,-2.3480268 6.063759,-2.3480268 8.377005,0 z" /></g></g></g><g
       id="g286"><g
         clip-path="url(#clipPath292)"
         id="g288"><g
           clip-path="url(#clipPath298)"
           id="g294"><g
             transform="matrix(0.7071068,0.7071068,0.7071068,-0.7071068,70.78396,679.9601)"
             id="g300"><path
               id="path302"
               style="fill:none;stroke:#ff644e;stroke-width:2;stroke-linecap:butt;stroke-linejoin:miter;stroke-miterlimit:4;stroke-dasharray:none;stroke-opacity:1"
               d="M 0,0 H 27.73552" /></g></g></g></g><g
       id="g304"><g
         clip-path="url(#clipPath310)"
         id="g306"><path
           id="path312"
           style="fill:#ffffff;fill-opacity:1;fill-rule:nonzero;stroke:none"
           d="m 86.13679,695.0881 c -2.74279,2.867 -2.74279,7.5153 0,10.3823 2.74278,2.8669 7.18972,2.8669 9.9325,0 2.74279,-2.867 2.74279,-7.5153 0,-10.3823 -2.74278,-2.867 -7.18972,-2.867 -9.9325,0 z" /><g
           transform="matrix(1,0,0,-1,84.0797,707.6206)"
           id="g314"><path
             id="path316"
             style="fill:none;stroke:#ff644e;stroke-width:2;stroke-linecap:butt;stroke-linejoin:miter;stroke-miterlimit:4;stroke-dasharray:none;stroke-opacity:1"
             d="m 2.05709,12.5325 c -2.7427866,-2.86698 -2.7427866,-7.515279 0,-10.382262 2.742786,-2.8669839 7.18972,-2.8669839 9.93251,0 2.74278,2.866983 2.74278,7.515282 0,10.382262 -2.74279,2.86699 -7.189724,2.86699 -9.93251,0 z" /></g></g></g><g
       id="g318"><g
         clip-path="url(#clipPath324)"
         id="g320"><path
           id="path326"
           style="fill:#ffffff;fill-opacity:1;fill-rule:nonzero;stroke:none"
           d="m 509.6709,756.1994 c 5.5039,-5.5012 5.5039,-14.4205 0,-19.9218 -5.504,-5.5012 -14.4277,-5.5012 -19.9316,0 -5.504,5.5013 -5.504,14.4206 0,19.9218 5.5039,5.5013 14.4276,5.5013 19.9316,0 z" /><g
           transform="matrix(1,0,0,-1,485.6113,760.3254)"
           id="g328"><path
             id="path330"
             style="fill:none;stroke:#ff644e;stroke-width:2;stroke-linecap:butt;stroke-linejoin:miter;stroke-miterlimit:4;stroke-dasharray:none;stroke-opacity:1"
             d="m 24.05958,4.125943 c 5.50396,5.501258 5.50396,14.420557 0,19.921817 -5.50396,5.50126 -14.427646,5.50126 -19.931608,0 -5.503962,-5.50126 -5.503962,-14.420559 0,-19.921817 5.503962,-5.501258 14.427648,-5.501258 19.931608,0 z" /></g></g></g><g
       id="g332"><g
         clip-path="url(#clipPath338)"
         id="g334"><path
           id="path340"
           style="fill:#ffffff;fill-opacity:1;fill-rule:nonzero;stroke:none"
           d="m 498.3306,622.2908 c 2.6335,2.7374 2.6335,7.1755 0,9.9128 -2.6335,2.7373 -6.9033,2.7373 -9.5368,0 -2.6335,-2.7373 -2.6335,-7.1754 0,-9.9128 2.6335,-2.7373 6.9033,-2.7373 9.5368,0 z" /><g
           transform="matrix(1,0,0,-1,486.8187,634.2566)"
           id="g342"><path
             id="path344"
             style="fill:none;stroke:#ff644e;stroke-width:2;stroke-linecap:butt;stroke-linejoin:miter;stroke-miterlimit:4;stroke-dasharray:none;stroke-opacity:1"
             d="m 11.51195,11.96575 c 2.63352,-2.737331 2.63352,-7.175421 0,-9.912752 -2.633516,-2.7373307 -6.903293,-2.7373307 -9.536811,0 -2.6335186,2.737331 -2.6335186,7.175421 0,9.912752 2.633518,2.73733 6.903295,2.73733 9.536811,0 z" /></g></g></g><g
       id="g346"><g
         clip-path="url(#clipPath352)"
         id="g348"><path
           id="path354"
           style="fill:#ffffff;fill-opacity:1;fill-rule:nonzero;stroke:none"
           d="m 54.1816,665.6769 c -3.64638,3.5608 -3.64638,9.334 0,12.8948 3.64638,3.5608 9.55834,3.5608 13.20472,0 3.64638,-3.5608 3.64638,-9.334 0,-12.8948 -3.64638,-3.5609 -9.55834,-3.5609 -13.20472,0 z" /><g
           transform="matrix(1,0,0,-1,51.44681,681.2423)"
           id="g356"><path
             id="path358"
             style="fill:none;stroke:#ff644e;stroke-width:2;stroke-linecap:butt;stroke-linejoin:miter;stroke-miterlimit:4;stroke-dasharray:none;stroke-opacity:1"
             d="m 2.734787,15.56546 c -3.6463826,-3.56081 -3.6463826,-9.334033 0,-12.894848 3.646382,-3.5608159 9.558333,-3.5608159 13.204713,0 3.64639,3.560815 3.64639,9.334038 0,12.894848 -3.64638,3.56082 -9.558331,3.56082 -13.204713,0 z" /></g></g></g><g
       id="g360"><g
         clip-path="url(#clipPath366)"
         id="g362"><g
           clip-path="url(#clipPath372)"
           id="g368"><g
             transform="matrix(-0.7071068,0.7071068,0.7071068,0.7071068,85.32925,704.7679)"
             id="g374"><path
               id="path376"
               style="fill:none;stroke:#ff644e;stroke-width:2;stroke-linecap:butt;stroke-linejoin:miter;stroke-miterlimit:4;stroke-dasharray:none;stroke-opacity:1"
               d="M 0,0 H 27.73552" /></g></g></g></g><g
       id="g378"><g
         clip-path="url(#clipPath384)"
         id="g380"><path
           id="path386"
           style="fill:#ffffff;fill-opacity:1;fill-rule:nonzero;stroke:none"
           d="m 72.03864,745.2528 c 5.62337,-5.5012 5.62337,-14.4205 0,-19.9218 -5.62338,-5.5013 -14.74066,-5.5013 -20.36403,0 -5.62337,5.5013 -5.62337,14.4206 0,19.9218 5.62337,5.5013 14.74065,5.5013 20.36403,0 z" /><g
           transform="matrix(1,0,0,-1,47.45708,749.3788)"
           id="g388"><path
             id="path390"
             style="fill:none;stroke:#ff644e;stroke-width:2;stroke-linecap:butt;stroke-linejoin:miter;stroke-miterlimit:4;stroke-dasharray:none;stroke-opacity:1"
             d="m 24.58155,4.125943 c 5.62338,5.501258 5.62338,14.420557 0,19.921817 -5.62337,5.50125 -14.740651,5.50125 -20.364022,0 -5.623371,-5.50126 -5.623371,-14.420559 0,-19.921817 5.623371,-5.501257 14.740652,-5.501257 20.364022,0 z" /></g></g></g><g
       id="g392"><g
         clip-path="url(#clipPath398)"
         id="g394"><path
           id="path400"
           style="fill:#ffffff;fill-opacity:1;fill-rule:nonzero;stroke:none"
           d="m 55.0471,728.0431 c -3.76079,3.9337 -3.76079,10.3114 0,14.2451 3.7608,3.9337 9.85825,3.9337 13.61904,0 3.76079,-3.9337 3.76079,-10.3114 0,-14.2451 -3.76079,-3.9337 -9.85824,-3.9337 -13.61904,0 z" /><g
           transform="matrix(1,0,0,-1,52.22651,745.2385)"
           id="g402"><path
             id="path404"
             style="fill:none;stroke:#ff644e;stroke-width:2;stroke-linecap:butt;stroke-linejoin:miter;stroke-miterlimit:4;stroke-dasharray:none;stroke-opacity:1"
             d="m 2.820595,17.19546 c -3.7607935,-3.9337 -3.7607935,-10.311486 0,-14.245186 3.760794,-3.9336988 9.858245,-3.9336988 13.619035,0 3.7608,3.9337 3.7608,10.311486 0,14.245186 -3.76079,3.9337 -9.858241,3.9337 -13.619035,0 z" /></g></g></g><g
       id="g406"><g
         clip-path="url(#clipPath412)"
         id="g408"><g
           clip-path="url(#clipPath418)"
           id="g414"><g
             transform="matrix(0,-1,-1,0,298.64,534.9139)"
             id="g420"><path
               id="path422"
               style="fill:none;stroke:#ff644e;stroke-width:2;stroke-linecap:butt;stroke-linejoin:miter;stroke-miterlimit:4;stroke-dasharray:none;stroke-opacity:1"
               d="M 0,0 H 293.0053" /></g></g></g></g><g
       id="g424"><g
         clip-path="url(#clipPath430)"
         id="g426"><g
           clip-path="url(#clipPath436)"
           id="g432"><g
             transform="matrix(0,-1,-1,0,492.5622,534.9139)"
             id="g438"><path
               id="path440"
               style="fill:none;stroke:#ff644e;stroke-width:2;stroke-linecap:butt;stroke-linejoin:miter;stroke-miterlimit:4;stroke-dasharray:none;stroke-opacity:1"
               d="M 0,0 H 293.0053" /></g></g></g></g><g
       id="g442"><g
         clip-path="url(#clipPath448)"
         id="g444"><g
           clip-path="url(#clipPath454)"
           id="g450"><g
             transform="matrix(0,-1,-1,0,105.4597,528.2472)"
             id="g456"><path
               id="path458"
               style="fill:none;stroke:#ff644e;stroke-width:2;stroke-linecap:butt;stroke-linejoin:miter;stroke-miterlimit:4;stroke-dasharray:none;stroke-opacity:1"
               d="M 0,0 H 286.3386" /></g></g></g></g></g></svg>