<?xml version="1.0" encoding="UTF-8" standalone="no"?>
<svg
   xmlns:dc="http://purl.org/dc/elements/1.1/"
   xmlns:cc="http://creativecommons.org/ns#"
   xmlns:rdf="http://www.w3.org/1999/02/22-rdf-syntax-ns#"
   xmlns:svg="http://www.w3.org/2000/svg"
   xmlns="http://www.w3.org/2000/svg"
   viewBox="0 0 793.70068 1122.5197"
   height="1122.5197"
   width="793.70068"
   xml:space="preserve"
   id="svg2"
   version="1.1"><metadata
     id="metadata8"><rdf:RDF><cc:Work
         rdf:about=""><dc:format>image/svg+xml</dc:format><dc:type
           rdf:resource="http://purl.org/dc/dcmitype/StillImage" /></cc:Work></rdf:RDF></metadata><defs
     id="defs6"><clipPath
       id="clipPath20"
       clipPathUnits="userSpaceOnUse"><path
         id="path18"
         d="M 0,0 H 595.28 V 841.89 H 0 Z" /></clipPath><clipPath
       id="clipPath30"
       clipPathUnits="userSpaceOnUse"><path
         id="path28"
         d="M 565.1624,680.7536 H 595.28 v 4 h -30.1176 z" /></clipPath><clipPath
       id="clipPath42"
       clipPathUnits="userSpaceOnUse"><path
         id="path40"
         d="M 299.64,524.2156 V 330.3229 h -4 v 193.8927 z" /></clipPath><clipPath
       id="clipPath48"
       clipPathUnits="userSpaceOnUse"><path
         id="path46"
         d="M 0,0 H 595.28 V 841.89 H 0 Z" /></clipPath><clipPath
       id="clipPath60"
       clipPathUnits="userSpaceOnUse"><path
         id="path58"
         d="m 40.19544,424.6118 88.89726,-18.4401 -0.8124,-3.9166 -88.89729,18.4401 z" /></clipPath><clipPath
       id="clipPath66"
       clipPathUnits="userSpaceOnUse"><path
         id="path64"
         d="M 0,0 H 595.28 V 841.89 H 0 Z" /></clipPath><clipPath
       id="clipPath78"
       clipPathUnits="userSpaceOnUse"><path
         id="path76"
         d="m 288.8965,395.7666 h 17.48709 v 18.01875 H 288.8965 Z" /></clipPath><clipPath
       id="clipPath92"
       clipPathUnits="userSpaceOnUse"><path
         id="path90"
         d="m 40.56528,513.2668 v -79.0989 h -4 v 79.0989 z" /></clipPath><clipPath
       id="clipPath98"
       clipPathUnits="userSpaceOnUse"><path
         id="path96"
         d="M 0,0 H 595.28 V 841.89 H 0 Z" /></clipPath><clipPath
       id="clipPath110"
       clipPathUnits="userSpaceOnUse"><path
         id="path108"
         d="m 25.03849,412.4335 h 27.56318 v 26.60729 H 25.03849 Z" /></clipPath><clipPath
       id="clipPath124"
       clipPathUnits="userSpaceOnUse"><path
         id="path122"
         d="m 29.82997,416.7277 h 17.8048 v 18.01875 h -17.8048 z" /></clipPath><clipPath
       id="clipPath138"
       clipPathUnits="userSpaceOnUse"><path
         id="path136"
         d="m 248.7443,402.7759 h 42.15219 v 4 H 248.7443 Z" /></clipPath><clipPath
       id="clipPath150"
       clipPathUnits="userSpaceOnUse"><path
         id="path148"
         d="m 160.0015,402.7759 h 82.30438 v 4 H 160.0015 Z" /></clipPath><clipPath
       id="clipPath162"
       clipPathUnits="userSpaceOnUse"><path
         id="path160"
         d="m 236.8195,395.7666 h 17.48709 v 18.01875 H 236.8195 Z" /></clipPath><clipPath
       id="clipPath176"
       clipPathUnits="userSpaceOnUse"><path
         id="path174"
         d="m 125.1653,385.1223 h 38.66814 v 39.30729 H 125.1653 Z" /></clipPath><clipPath
       id="clipPath190"
       clipPathUnits="userSpaceOnUse"><path
         id="path188"
         d="m 127.5012,388.029 h 33.99627 v 33.49383 H 127.5012 Z" /></clipPath><clipPath
       id="clipPath204"
       clipPathUnits="userSpaceOnUse"><path
         id="path202"
         d="m 138.3276,421.766 v -18.9901 h -4 v 18.9901 z" /></clipPath><clipPath
       id="clipPath210"
       clipPathUnits="userSpaceOnUse"><path
         id="path208"
         d="M 0,0 H 595.28 V 841.89 H 0 Z" /></clipPath><clipPath
       id="clipPath222"
       clipPathUnits="userSpaceOnUse"><path
         id="path220"
         d="m 146.4993,421.766 v -18.9901 h -4 v 18.9901 z" /></clipPath><clipPath
       id="clipPath228"
       clipPathUnits="userSpaceOnUse"><path
         id="path226"
         d="M 0,0 H 595.28 V 841.89 H 0 Z" /></clipPath><clipPath
       id="clipPath240"
       clipPathUnits="userSpaceOnUse"><path
         id="path238"
         d="m 155.6563,421.766 v -18.9901 h -4 v 18.9901 z" /></clipPath><clipPath
       id="clipPath246"
       clipPathUnits="userSpaceOnUse"><path
         id="path244"
         d="M 0,0 H 595.28 V 841.89 H 0 Z" /></clipPath><clipPath
       id="clipPath258"
       clipPathUnits="userSpaceOnUse"><path
         id="path256"
         d="m 242.7201,399.2241 -12.7091,-12.7091 -2.8285,2.8284 12.7091,12.7091 z" /></clipPath><clipPath
       id="clipPath264"
       clipPathUnits="userSpaceOnUse"><path
         id="path262"
         d="M 0,0 H 595.28 V 841.89 H 0 Z" /></clipPath><clipPath
       id="clipPath276"
       clipPathUnits="userSpaceOnUse"><path
         id="path274"
         d="m 23.56714,511.2668 h 31.99627 v 29.93882 H 23.56714 Z" /></clipPath><clipPath
       id="clipPath290"
       clipPathUnits="userSpaceOnUse"><path
         id="path288"
         d="m 33.82997,541.2057 v -18.9901 h -4 v 18.9901 z" /></clipPath><clipPath
       id="clipPath296"
       clipPathUnits="userSpaceOnUse"><path
         id="path294"
         d="M 0,0 H 595.28 V 841.89 H 0 Z" /></clipPath><clipPath
       id="clipPath308"
       clipPathUnits="userSpaceOnUse"><path
         id="path306"
         d="m 48.63477,540.0255 v -18.9901 h -4 v 18.9901 z" /></clipPath><clipPath
       id="clipPath314"
       clipPathUnits="userSpaceOnUse"><path
         id="path312"
         d="M 0,0 H 595.28 V 841.89 H 0 Z" /></clipPath><clipPath
       id="clipPath326"
       clipPathUnits="userSpaceOnUse"><path
         id="path324"
         d="m 37.09392,518.6344 h 3.471354 v 4.40104 H 37.09392 Z" /></clipPath><clipPath
       id="clipPath336"
       clipPathUnits="userSpaceOnUse"><path
         id="path334"
         d="m 218.4642,381.0196 h 17.48709 v 18.01875 H 218.4642 Z" /></clipPath><clipPath
       id="clipPath350"
       clipPathUnits="userSpaceOnUse"><path
         id="path348"
         d="m 304.3836,402.7759 h 42.15219 v 4 H 304.3836 Z" /></clipPath><clipPath
       id="clipPath362"
       clipPathUnits="userSpaceOnUse"><path
         id="path360"
         d="m 344.5357,389.029 h 33.99627 v 33.49383 H 344.5357 Z" /></clipPath><clipPath
       id="clipPath376"
       clipPathUnits="userSpaceOnUse"><path
         id="path374"
         d="m 518.2065,403.7759 h 43.96253 v 4 H 518.2065 Z" /></clipPath><clipPath
       id="clipPath388"
       clipPathUnits="userSpaceOnUse"><path
         id="path386"
         d="m 539.9392,383.4629 h 40.45977 v 40.62604 H 539.9392 Z" /></clipPath><clipPath
       id="clipPath402"
       clipPathUnits="userSpaceOnUse"><path
         id="path400"
         d="m 376.532,403.7759 h 144.4259 v 4 H 376.532 Z" /></clipPath><clipPath
       id="clipPath414"
       clipPathUnits="userSpaceOnUse"><path
         id="path412"
         d="m 563.1691,474.7174 v -52.6285 h -4 v 52.6285 z" /></clipPath><clipPath
       id="clipPath420"
       clipPathUnits="userSpaceOnUse"><path
         id="path418"
         d="M 0,0 H 595.28 V 841.89 H 0 Z" /></clipPath><clipPath
       id="clipPath432"
       clipPathUnits="userSpaceOnUse"><path
         id="path430"
         d="m 547.1709,390.4973 h 27.1639 v 26.55717 h -27.1639 z" /></clipPath><clipPath
       id="clipPath446"
       clipPathUnits="userSpaceOnUse"><path
         id="path444"
         d="m 349.5357,393.2838 h 23.99627 v 24.98434 H 349.5357 Z" /></clipPath><clipPath
       id="clipPath460"
       clipPathUnits="userSpaceOnUse"><path
         id="path458"
         d="m 353.8713,397.5374 h 15.32508 v 16.24794 H 353.8713 Z" /></clipPath><clipPath
       id="clipPath474"
       clipPathUnits="userSpaceOnUse"><path
         id="path472"
         d="m 548.3386,472.7174 h 25.99627 v 33.54151 H 548.3386 Z" /></clipPath><clipPath
       id="clipPath488"
       clipPathUnits="userSpaceOnUse"><path
         id="path486"
         d="m 567.1624,506.2589 v -19.7132 h -4 v 19.7132 z" /></clipPath><clipPath
       id="clipPath494"
       clipPathUnits="userSpaceOnUse"><path
         id="path492"
         d="M 0,0 H 595.28 V 841.89 H 0 Z" /></clipPath><clipPath
       id="clipPath506"
       clipPathUnits="userSpaceOnUse"><path
         id="path504"
         d="m 559.5998,506.2589 v -21.0074 h -4 v 21.0074 z" /></clipPath><clipPath
       id="clipPath512"
       clipPathUnits="userSpaceOnUse"><path
         id="path510"
         d="M 0,0 H 595.28 V 841.89 H 0 Z" /></clipPath><clipPath
       id="clipPath524"
       clipPathUnits="userSpaceOnUse"><path
         id="path522"
         d="m 534.9392,666.0067 h 33.99627 v 33.49383 H 534.9392 Z" /></clipPath><clipPath
       id="clipPath538"
       clipPathUnits="userSpaceOnUse"><path
         id="path536"
         d="m 539.9392,670.2615 h 23.99627 v 24.98434 H 539.9392 Z" /></clipPath><clipPath
       id="clipPath552"
       clipPathUnits="userSpaceOnUse"><path
         id="path550"
         d="m 544.2748,674.6297 h 15.32508 v 16.24794 H 544.2748 Z" /></clipPath><clipPath
       id="clipPath566"
       clipPathUnits="userSpaceOnUse"><path
         id="path564"
         d="m 512.1895,709.7459 26.5781,-26.5781 -2.8284,-2.8284 -26.5781,26.5781 z" /></clipPath><clipPath
       id="clipPath572"
       clipPathUnits="userSpaceOnUse"><path
         id="path570"
         d="M 0,0 H 595.28 V 841.89 H 0 Z" /></clipPath><clipPath
       id="clipPath584"
       clipPathUnits="userSpaceOnUse"><path
         id="path582"
         d="m 504.3591,699.8034 h 15.99813 v 17.05671 H 504.3591 Z" /></clipPath></defs><g
     transform="matrix(1.3333333,0,0,-1.3333333,0,1122.5197)"
     id="g10"><g
       id="g12" /><g
       id="g14"><g
         clip-path="url(#clipPath20)"
         id="g16"><path
           id="path22"
           style="fill:#ffffff;fill-opacity:1;fill-rule:nonzero;stroke:none"
           d="M 0,841.89 H 596 V -0.1099854 H 0 Z" /></g></g><g
       id="g24"><g
         clip-path="url(#clipPath30)"
         id="g26"><g
           transform="matrix(1,0,0,-1,566.1624,682.7536)"
           id="g32"><path
             id="path34"
             style="fill:none;stroke:#ff644e;stroke-width:2;stroke-linecap:butt;stroke-linejoin:miter;stroke-miterlimit:4;stroke-dasharray:none;stroke-opacity:1"
             d="M 0,0 H 57.76405" /></g></g></g><g
       id="g36"><g
         clip-path="url(#clipPath42)"
         id="g38"><g
           clip-path="url(#clipPath48)"
           id="g44"><g
             transform="matrix(0,-1,-1,0,297.64,523.2156)"
             id="g50"><path
               id="path52"
               style="fill:none;stroke:#ff644e;stroke-width:2;stroke-linecap:butt;stroke-linejoin:miter;stroke-miterlimit:4;stroke-dasharray:none;stroke-opacity:1"
               d="M 0,0 H 191.8927" /></g></g></g></g><g
       id="g54"><g
         clip-path="url(#clipPath60)"
         id="g56"><g
           clip-path="url(#clipPath66)"
           id="g62"><g
             transform="matrix(0.9791563,-0.2031083,-0.2031083,-0.9791563,40.76838,422.4504)"
             id="g68"><path
               id="path70"
               style="fill:none;stroke:#ff644e;stroke-width:2;stroke-linecap:butt;stroke-linejoin:miter;stroke-miterlimit:4;stroke-dasharray:none;stroke-opacity:1"
               d="M 0,0 H 88.78968" /></g></g></g></g><g
       id="g72"><g
         clip-path="url(#clipPath78)"
         id="g74"><path
           id="path80"
           style="fill:#ffffff;fill-opacity:1;fill-rule:nonzero;stroke:none"
           d="m 302.4084,399.8196 c 2.6335,2.7373 2.6335,7.1754 0,9.9127 -2.6335,2.7373 -6.9033,2.7373 -9.5368,0 -2.6335,-2.7373 -2.6335,-7.1754 0,-9.9127 2.6335,-2.7374 6.9033,-2.7374 9.5368,0 z" /><g
           transform="matrix(1,0,0,-1,290.8965,411.7853)"
           id="g82"><path
             id="path84"
             style="fill:none;stroke:#ff644e;stroke-width:2;stroke-linecap:butt;stroke-linejoin:miter;stroke-miterlimit:4;stroke-dasharray:none;stroke-opacity:1"
             d="m 11.51195,11.96575 c 2.63352,-2.737331 2.63352,-7.175421 0,-9.912752 -2.633516,-2.7373307 -6.903293,-2.7373307 -9.536811,0 -2.6335186,2.737331 -2.6335186,7.175421 0,9.912752 2.633518,2.73733 6.903295,2.73733 9.536811,0 z" /></g></g></g><g
       id="g86"><g
         clip-path="url(#clipPath92)"
         id="g88"><g
           clip-path="url(#clipPath98)"
           id="g94"><g
             transform="matrix(0,-1,-1,0,38.56528,512.2668)"
             id="g100"><path
               id="path102"
               style="fill:none;stroke:#ff644e;stroke-width:2;stroke-linecap:butt;stroke-linejoin:miter;stroke-miterlimit:4;stroke-dasharray:none;stroke-opacity:1"
               d="M 0,0 H 77.09899" /></g></g></g></g><g
       id="g104"><g
         clip-path="url(#clipPath110)"
         id="g106"><path
           id="path112"
           style="fill:#ffffff;fill-opacity:1;fill-rule:nonzero;stroke:none"
           d="m 47.15093,417.7442 c 4.601,4.4144 4.601,11.5714 0,15.9858 -4.601,4.4143 -12.06069,4.4143 -16.66169,0 -4.60099,-4.4144 -4.60099,-11.5714 0,-15.9858 4.601,-4.4143 12.06069,-4.4143 16.66169,0 z" /><g
           transform="matrix(1,0,0,-1,27.03849,437.0408)"
           id="g114"><path
             id="path116"
             style="fill:none;stroke:#ff644e;stroke-width:2;stroke-linecap:butt;stroke-linejoin:miter;stroke-miterlimit:4;stroke-dasharray:none;stroke-opacity:1"
             d="m 20.11243,19.29653 c 4.601,-4.41435 4.601,-11.571421 0,-15.985769 -4.60099,-4.414348 -12.060684,-4.414348 -16.661682,0 -4.600997,4.414348 -4.600997,11.571419 0,15.985769 4.600998,4.41435 12.060692,4.41435 16.661682,0 z" /></g></g></g><g
       id="g118"><g
         clip-path="url(#clipPath124)"
         id="g120"><path
           id="path126"
           style="fill:#ffffff;fill-opacity:1;fill-rule:nonzero;stroke:none"
           d="m 43.61311,420.7807 c 2.69555,2.7374 2.69555,7.1755 0,9.9128 -2.69556,2.7373 -7.06592,2.7373 -9.76147,0 -2.69555,-2.7373 -2.69555,-7.1754 0,-9.9128 2.69555,-2.7373 7.06591,-2.7373 9.76147,0 z" /><g
           transform="matrix(1,0,0,-1,31.82997,432.7465)"
           id="g128"><path
             id="path130"
             style="fill:none;stroke:#ff644e;stroke-width:2;stroke-linecap:butt;stroke-linejoin:miter;stroke-miterlimit:4;stroke-dasharray:none;stroke-opacity:1"
             d="m 11.78313,11.96575 c 2.69556,-2.737331 2.69556,-7.175421 0,-9.912752 -2.695551,-2.7373307 -7.065909,-2.7373307 -9.761464,0 -2.6955546,2.737331 -2.6955546,7.175421 0,9.912752 2.695555,2.73733 7.065913,2.73733 9.761464,0 z" /></g></g></g><g
       id="g132"><g
         clip-path="url(#clipPath138)"
         id="g134"><g
           transform="matrix(1,0,0,-1,249.7443,404.7759)"
           id="g140"><path
             id="path142"
             style="fill:none;stroke:#ff644e;stroke-width:2;stroke-linecap:butt;stroke-linejoin:miter;stroke-miterlimit:4;stroke-dasharray:none;stroke-opacity:1"
             d="M 0,0 H 40.15219" /></g></g></g><g
       id="g144"><g
         clip-path="url(#clipPath150)"
         id="g146"><g
           transform="matrix(1,0,0,-1,161.0015,404.7759)"
           id="g152"><path
             id="path154"
             style="fill:none;stroke:#ff644e;stroke-width:2;stroke-linecap:butt;stroke-linejoin:miter;stroke-miterlimit:4;stroke-dasharray:none;stroke-opacity:1"
             d="M 0,0 H 80.30438" /></g></g></g><g
       id="g156"><g
         clip-path="url(#clipPath162)"
         id="g158"><path
           id="path164"
           style="fill:#ffffff;fill-opacity:1;fill-rule:nonzero;stroke:none"
           d="m 250.3315,399.8196 c 2.6335,2.7373 2.6335,7.1754 0,9.9127 -2.6336,2.7373 -6.9033,2.7373 -9.5369,0 -2.6335,-2.7373 -2.6335,-7.1754 0,-9.9127 2.6336,-2.7374 6.9033,-2.7374 9.5369,0 z" /><g
           transform="matrix(1,0,0,-1,238.8195,411.7853)"
           id="g166"><path
             id="path168"
             style="fill:none;stroke:#ff644e;stroke-width:2;stroke-linecap:butt;stroke-linejoin:miter;stroke-miterlimit:4;stroke-dasharray:none;stroke-opacity:1"
             d="m 11.51195,11.96575 c 2.63352,-2.737331 2.63352,-7.175421 0,-9.912752 -2.633516,-2.7373307 -6.903293,-2.7373307 -9.536811,0 -2.6335186,2.737331 -2.6335186,7.175421 0,9.912752 2.633518,2.73733 6.903295,2.73733 9.536811,0 z" /></g></g></g><g
       id="g170"><g
         clip-path="url(#clipPath176)"
         id="g172"><path
           id="path178"
           style="fill:#ffffff;fill-opacity:1;fill-rule:nonzero;stroke:none"
           d="m 127.1653,422.4296 h 34.6681 v -35.3073 h -34.6681 z" /><g
           transform="matrix(1,0,0,-1,127.1653,422.4296)"
           id="g180"><path
             id="path182"
             style="fill:none;stroke:#ff644e;stroke-width:2;stroke-linecap:butt;stroke-linejoin:miter;stroke-miterlimit:4;stroke-dasharray:none;stroke-opacity:1"
             d="M 0,0 H 34.66814 V 35.30729 H 0 Z" /></g></g></g><g
       id="g184"><g
         clip-path="url(#clipPath190)"
         id="g186"><path
           id="path192"
           style="fill:#ffffff;fill-opacity:1;fill-rule:nonzero;stroke:none"
           d="m 129.5012,419.5228 h 29.9963 V 390.029 h -29.9963 z" /><g
           transform="matrix(1,0,0,-1,129.5012,419.5228)"
           id="g194"><path
             id="path196"
             style="fill:none;stroke:#ff644e;stroke-width:2;stroke-linecap:butt;stroke-linejoin:miter;stroke-miterlimit:4;stroke-dasharray:none;stroke-opacity:1"
             d="M 0,0 H 29.99627 V 29.49383 H 0 Z" /></g></g></g><g
       id="g198"><g
         clip-path="url(#clipPath204)"
         id="g200"><g
           clip-path="url(#clipPath210)"
           id="g206"><g
             transform="matrix(0,-1,-1,0,136.3276,420.766)"
             id="g212"><path
               id="path214"
               style="fill:none;stroke:#ff644e;stroke-width:2;stroke-linecap:butt;stroke-linejoin:miter;stroke-miterlimit:4;stroke-dasharray:none;stroke-opacity:1"
               d="M 0,0 H 16.99006" /></g></g></g></g><g
       id="g216"><g
         clip-path="url(#clipPath222)"
         id="g218"><g
           clip-path="url(#clipPath228)"
           id="g224"><g
             transform="matrix(0,-1,-1,0,144.4993,420.766)"
             id="g230"><path
               id="path232"
               style="fill:none;stroke:#ff644e;stroke-width:2;stroke-linecap:butt;stroke-linejoin:miter;stroke-miterlimit:4;stroke-dasharray:none;stroke-opacity:1"
               d="M 0,0 H 16.99006" /></g></g></g></g><g
       id="g234"><g
         clip-path="url(#clipPath240)"
         id="g236"><g
           clip-path="url(#clipPath246)"
           id="g242"><g
             transform="matrix(0,-1,-1,0,153.6563,420.766)"
             id="g248"><path
               id="path250"
               style="fill:none;stroke:#ff644e;stroke-width:2;stroke-linecap:butt;stroke-linejoin:miter;stroke-miterlimit:4;stroke-dasharray:none;stroke-opacity:1"
               d="M 0,0 H 16.99006" /></g></g></g></g><g
       id="g252"><g
         clip-path="url(#clipPath258)"
         id="g254"><g
           clip-path="url(#clipPath264)"
           id="g260"><g
             transform="matrix(-0.7071068,-0.7071068,-0.7071068,0.7071068,240.5987,399.9312)"
             id="g266"><path
               id="path268"
               style="fill:none;stroke:#ff644e;stroke-width:2;stroke-linecap:butt;stroke-linejoin:miter;stroke-miterlimit:4;stroke-dasharray:none;stroke-opacity:1"
               d="M 0,0 H 15.97338" /></g></g></g></g><g
       id="g270"><g
         clip-path="url(#clipPath276)"
         id="g272"><path
           id="path278"
           style="fill:#ffffff;fill-opacity:1;fill-rule:nonzero;stroke:none"
           d="M 25.56714,539.2057 H 53.56341 V 513.2668 H 25.56714 Z" /><g
           transform="matrix(1,0,0,-1,25.56714,539.2057)"
           id="g280"><path
             id="path282"
             style="fill:none;stroke:#ff644e;stroke-width:2;stroke-linecap:butt;stroke-linejoin:miter;stroke-miterlimit:4;stroke-dasharray:none;stroke-opacity:1"
             d="M 0,0 H 27.99627 V 25.93882 H 0 Z" /></g></g></g><g
       id="g284"><g
         clip-path="url(#clipPath290)"
         id="g286"><g
           clip-path="url(#clipPath296)"
           id="g292"><g
             transform="matrix(0,-1,-1,0,31.82997,540.2057)"
             id="g298"><path
               id="path300"
               style="fill:none;stroke:#ff644e;stroke-width:2;stroke-linecap:butt;stroke-linejoin:miter;stroke-miterlimit:4;stroke-dasharray:none;stroke-opacity:1"
               d="M 0,0 H 16.99006" /></g></g></g></g><g
       id="g302"><g
         clip-path="url(#clipPath308)"
         id="g304"><g
           clip-path="url(#clipPath314)"
           id="g310"><g
             transform="matrix(0,-1,-1,0,46.63477,539.0255)"
             id="g316"><path
               id="path318"
               style="fill:none;stroke:#ff644e;stroke-width:2;stroke-linecap:butt;stroke-linejoin:miter;stroke-miterlimit:4;stroke-dasharray:none;stroke-opacity:1"
               d="M 0,0 H 16.99006" /></g></g></g></g><g
       id="g320"><g
         clip-path="url(#clipPath326)"
         id="g322"><path
           id="path328"
           style="fill:#ff644e;fill-opacity:1;fill-rule:nonzero;stroke:none"
           d="m 39.3498,521.6838 c 0.2873,-0.4688 0.2873,-1.229 0,-1.6978 -0.2873,-0.4688 -0.7531,-0.4688 -1.0404,0 -0.2873,0.4688 -0.2873,1.229 0,1.6978 0.2873,0.4688 0.7531,0.4688 1.0404,0 z" /></g></g><g
       id="g330"><g
         clip-path="url(#clipPath336)"
         id="g332"><path
           id="path338"
           style="fill:#ffffff;fill-opacity:1;fill-rule:nonzero;stroke:none"
           d="m 231.9762,385.0726 c 2.6335,2.7374 2.6335,7.1755 0,9.9128 -2.6336,2.7373 -6.9033,2.7373 -9.5368,0 -2.6336,-2.7373 -2.6336,-7.1754 0,-9.9128 2.6335,-2.7373 6.9032,-2.7373 9.5368,0 z" /><g
           transform="matrix(1,0,0,-1,220.4642,397.0384)"
           id="g340"><path
             id="path342"
             style="fill:none;stroke:#ff644e;stroke-width:2;stroke-linecap:butt;stroke-linejoin:miter;stroke-miterlimit:4;stroke-dasharray:none;stroke-opacity:1"
             d="m 11.51195,11.96575 c 2.63352,-2.737331 2.63352,-7.175421 0,-9.912752 -2.633516,-2.7373307 -6.903293,-2.7373307 -9.536811,0 -2.6335186,2.737331 -2.6335186,7.175421 0,9.912752 2.633518,2.73733 6.903295,2.73733 9.536811,0 z" /></g></g></g><g
       id="g344"><g
         clip-path="url(#clipPath350)"
         id="g346"><g
           transform="matrix(1,0,0,-1,305.3836,404.7759)"
           id="g352"><path
             id="path354"
             style="fill:none;stroke:#ff644e;stroke-width:2;stroke-linecap:butt;stroke-linejoin:miter;stroke-miterlimit:4;stroke-dasharray:none;stroke-opacity:1"
             d="M 0,0 H 40.15219" /></g></g></g><g
       id="g356"><g
         clip-path="url(#clipPath362)"
         id="g358"><path
           id="path364"
           style="fill:#ffffff;fill-opacity:1;fill-rule:nonzero;stroke:none"
           d="M 346.5357,420.5228 H 376.532 V 391.029 h -29.9963 z" /><g
           transform="matrix(1,0,0,-1,346.5357,420.5228)"
           id="g366"><path
             id="path368"
             style="fill:none;stroke:#ff644e;stroke-width:2;stroke-linecap:butt;stroke-linejoin:miter;stroke-miterlimit:4;stroke-dasharray:none;stroke-opacity:1"
             d="M 0,0 H 29.99627 V 29.49383 H 0 Z" /></g></g></g><g
       id="g370"><g
         clip-path="url(#clipPath376)"
         id="g372"><g
           transform="matrix(1,0,0,-1,519.2065,405.7759)"
           id="g378"><path
             id="path380"
             style="fill:none;stroke:#ff644e;stroke-width:2;stroke-linecap:butt;stroke-linejoin:miter;stroke-miterlimit:4;stroke-dasharray:none;stroke-opacity:1"
             d="M 0,0 H 41.96253" /></g></g></g><g
       id="g382"><g
         clip-path="url(#clipPath388)"
         id="g384"><path
           id="path390"
           style="fill:#ffffff;fill-opacity:1;fill-rule:nonzero;stroke:none"
           d="m 573.0595,390.8267 c 7.1193,7.1517 7.1193,18.7468 0,25.8985 -7.1192,7.1517 -18.6617,7.1517 -25.7809,0 -7.1192,-7.1517 -7.1192,-18.7468 0,-25.8985 7.1192,-7.1517 18.6617,-7.1517 25.7809,0 z" /><g
           transform="matrix(1,0,0,-1,541.9392,422.089)"
           id="g392"><path
             id="path394"
             style="fill:none;stroke:#ff644e;stroke-width:2;stroke-linecap:butt;stroke-linejoin:miter;stroke-miterlimit:4;stroke-dasharray:none;stroke-opacity:1"
             d="m 31.12037,31.26228 c 7.11921,-7.15168 7.11921,-18.74684 0,-25.898522 -7.11922,-7.151677 -18.66175,-7.151677 -25.78096,0 -7.119213,7.151682 -7.119213,18.746842 0,25.898522 7.11921,7.15168 18.66174,7.15168 25.78096,0 z" /></g></g></g><g
       id="g396"><g
         clip-path="url(#clipPath402)"
         id="g398"><g
           transform="matrix(1,0,0,-1,377.532,405.7759)"
           id="g404"><path
             id="path406"
             style="fill:none;stroke:#ff644e;stroke-width:2;stroke-linecap:butt;stroke-linejoin:miter;stroke-miterlimit:4;stroke-dasharray:none;stroke-opacity:1"
             d="M 0,0 H 142.4259" /></g></g></g><g
       id="g408"><g
         clip-path="url(#clipPath414)"
         id="g410"><g
           clip-path="url(#clipPath420)"
           id="g416"><g
             transform="matrix(0,-1,-1,0,561.1691,473.7174)"
             id="g422"><path
               id="path424"
               style="fill:none;stroke:#ff644e;stroke-width:2;stroke-linecap:butt;stroke-linejoin:miter;stroke-miterlimit:4;stroke-dasharray:none;stroke-opacity:1"
               d="M 0,0 H 50.62841" /></g></g></g></g><g
       id="g426"><g
         clip-path="url(#clipPath432)"
         id="g428"><path
           id="path434"
           style="fill:#ffffff;fill-opacity:1;fill-rule:nonzero;stroke:none"
           d="m 568.9426,395.8008 c 4.523,4.4045 4.523,11.5457 0,15.9503 -4.5231,4.4046 -11.8564,4.4046 -16.3794,0 -4.523,-4.4046 -4.523,-11.5458 0,-15.9503 4.523,-4.4046 11.8563,-4.4046 16.3794,0 z" /><g
           transform="matrix(1,0,0,-1,549.1709,415.0545)"
           id="g436"><path
             id="path438"
             style="fill:none;stroke:#ff644e;stroke-width:2;stroke-linecap:butt;stroke-linejoin:miter;stroke-miterlimit:4;stroke-dasharray:none;stroke-opacity:1"
             d="m 19.77163,19.25375 c 4.52303,-4.40456 4.52303,-11.545767 0,-15.950329 -4.52304,-4.404561 -11.856323,-4.404561 -16.379356,0 -4.523032,4.404562 -4.523032,11.545769 0,15.950329 4.523033,4.40456 11.856316,4.40456 16.379356,0 z" /></g></g></g><g
       id="g440"><g
         clip-path="url(#clipPath446)"
         id="g442"><path
           id="path448"
           style="fill:#ffffff;fill-opacity:1;fill-rule:nonzero;stroke:none"
           d="M 351.5357,416.2681 H 371.532 V 395.2838 H 351.5357 Z" /><g
           transform="matrix(1,0,0,-1,351.5357,416.2681)"
           id="g450"><path
             id="path452"
             style="fill:none;stroke:#ff644e;stroke-width:2;stroke-linecap:butt;stroke-linejoin:miter;stroke-miterlimit:4;stroke-dasharray:none;stroke-opacity:1"
             d="M 0,0 H 19.99627 V 20.98434 H 0 Z" /></g></g></g><g
       id="g454"><g
         clip-path="url(#clipPath460)"
         id="g456"><path
           id="path462"
           style="fill:#ffffff;fill-opacity:1;fill-rule:nonzero;stroke:none"
           d="m 355.8713,399.5374 h 11.3251 v 12.2479 h -11.3251 z" /><g
           transform="matrix(1,0,0,-1,355.8713,411.7853)"
           id="g464"><path
             id="path466"
             style="fill:none;stroke:#ff644e;stroke-width:2;stroke-linecap:butt;stroke-linejoin:miter;stroke-miterlimit:4;stroke-dasharray:none;stroke-opacity:1"
             d="M 0,12.24794 H 11.32508 V 0 H 0 Z" /></g></g></g><g
       id="g468"><g
         clip-path="url(#clipPath474)"
         id="g470"><path
           id="path476"
           style="fill:#ffffff;fill-opacity:1;fill-rule:nonzero;stroke:none"
           d="m 550.3386,504.2589 h 21.9962 v -29.5415 h -21.9962 z" /><g
           transform="matrix(1,0,0,-1,550.3386,504.2589)"
           id="g478"><path
             id="path480"
             style="fill:none;stroke:#ff644e;stroke-width:2;stroke-linecap:butt;stroke-linejoin:miter;stroke-miterlimit:4;stroke-dasharray:none;stroke-opacity:1"
             d="M 0,0 H 21.99627 V 29.54151 H 0 Z" /></g></g></g><g
       id="g482"><g
         clip-path="url(#clipPath488)"
         id="g484"><g
           clip-path="url(#clipPath494)"
           id="g490"><g
             transform="matrix(0,-1,-1,0,565.1624,505.2589)"
             id="g496"><path
               id="path498"
               style="fill:none;stroke:#ff644e;stroke-width:2;stroke-linecap:butt;stroke-linejoin:miter;stroke-miterlimit:4;stroke-dasharray:none;stroke-opacity:1"
               d="M 0,0 H 17.7132" /></g></g></g></g><g
       id="g500"><g
         clip-path="url(#clipPath506)"
         id="g502"><g
           clip-path="url(#clipPath512)"
           id="g508"><g
             transform="matrix(0,-1,-1,0,557.5998,505.2589)"
             id="g514"><path
               id="path516"
               style="fill:none;stroke:#ff644e;stroke-width:2;stroke-linecap:butt;stroke-linejoin:miter;stroke-miterlimit:4;stroke-dasharray:none;stroke-opacity:1"
               d="M 0,0 H 19.00739" /></g></g></g></g><g
       id="g518"><g
         clip-path="url(#clipPath524)"
         id="g520"><path
           id="path526"
           style="fill:#ffffff;fill-opacity:1;fill-rule:nonzero;stroke:none"
           d="m 536.9392,697.5005 h 29.9962 v -29.4938 h -29.9962 z" /><g
           transform="matrix(1,0,0,-1,536.9392,697.5005)"
           id="g528"><path
             id="path530"
             style="fill:none;stroke:#ff644e;stroke-width:2;stroke-linecap:butt;stroke-linejoin:miter;stroke-miterlimit:4;stroke-dasharray:none;stroke-opacity:1"
             d="M 0,0 H 29.99627 V 29.49383 H 0 Z" /></g></g></g><g
       id="g532"><g
         clip-path="url(#clipPath538)"
         id="g534"><path
           id="path540"
           style="fill:#ffffff;fill-opacity:1;fill-rule:nonzero;stroke:none"
           d="m 541.9392,693.2458 h 19.9962 v -20.9843 h -19.9962 z" /><g
           transform="matrix(1,0,0,-1,541.9392,693.2458)"
           id="g542"><path
             id="path544"
             style="fill:none;stroke:#ff644e;stroke-width:2;stroke-linecap:butt;stroke-linejoin:miter;stroke-miterlimit:4;stroke-dasharray:none;stroke-opacity:1"
             d="M 0,0 H 19.99627 V 20.98434 H 0 Z" /></g></g></g><g
       id="g546"><g
         clip-path="url(#clipPath552)"
         id="g548"><path
           id="path554"
           style="fill:#ffffff;fill-opacity:1;fill-rule:nonzero;stroke:none"
           d="m 546.2748,676.6297 h 11.325 v 12.2479 h -11.325 z" /><g
           transform="matrix(1,0,0,-1,546.2748,688.8776)"
           id="g556"><path
             id="path558"
             style="fill:none;stroke:#ff644e;stroke-width:2;stroke-linecap:butt;stroke-linejoin:miter;stroke-miterlimit:4;stroke-dasharray:none;stroke-opacity:1"
             d="M 0,12.24794 H 11.32508 V 0 H 0 Z" /></g></g></g><g
       id="g560"><g
         clip-path="url(#clipPath566)"
         id="g562"><g
           clip-path="url(#clipPath572)"
           id="g568"><g
             transform="matrix(0.7071068,-0.7071068,-0.7071068,-0.7071068,511.4824,707.6246)"
             id="g574"><path
               id="path576"
               style="fill:none;stroke:#ff644e;stroke-width:2;stroke-linecap:butt;stroke-linejoin:miter;stroke-miterlimit:4;stroke-dasharray:none;stroke-opacity:1"
               d="M 0,0 H 35.58712" /></g></g></g></g><g
       id="g578"><g
         clip-path="url(#clipPath584)"
         id="g580"><path
           id="path586"
           style="fill:#ffffff;fill-opacity:1;fill-rule:nonzero;stroke:none"
           d="m 516.6001,703.7155 c 2.3428,2.5495 2.3428,6.683 0,9.2325 -2.3427,2.5495 -6.1411,2.5495 -8.4839,0 -2.3428,-2.5495 -2.3428,-6.683 0,-9.2325 2.3428,-2.5495 6.1412,-2.5495 8.4839,0 z" /><g
           transform="matrix(1,0,0,-1,506.3591,714.8601)"
           id="g588"><path
             id="path590"
             style="fill:none;stroke:#ff644e;stroke-width:2;stroke-linecap:butt;stroke-linejoin:miter;stroke-miterlimit:4;stroke-dasharray:none;stroke-opacity:1"
             d="m 10.24105,11.1446 c 2.34278,-2.549481 2.34278,-6.683007 0,-9.232489 -2.342783,-2.5494814 -6.141182,-2.5494814 -8.483964,0 -2.3427814,2.549482 -2.3427814,6.683008 0,9.232489 2.342782,2.54948 6.141181,2.54948 8.483964,0 z" /></g></g></g></g></svg>