<?xml version="1.0" encoding="UTF-8"?>
<svg xmlns="http://www.w3.org/2000/svg" xmlns:xlink="http://www.w3.org/1999/xlink" width="595.2755pt" height="841.8898pt" viewBox="0 0 595.2755 841.8898" version="1.1">
<defs>
<clipPath id="clip1">
  <path d="M 565.164063 158 L 595.277344 158 L 595.277344 161 L 565.164063 161 Z M 565.164063 158 "/>
</clipPath>
<clipPath id="clip2">
  <path d="M 292 327.007813 L 295 327.007813 L 295 520.898438 L 292 520.898438 Z M 292 327.007813 "/>
</clipPath>
<clipPath id="clip3">
  <path d="M 36 389 L 127 389 L 127 412 L 36 412 Z M 36 389 "/>
</clipPath>
<clipPath id="clip4">
  <path d="M 37.167969 389.574219 L 126.066406 408.011719 L 125.253906 411.929688 L 36.355469 393.488281 Z M 37.167969 389.574219 "/>
</clipPath>
<clipPath id="clip5">
  <path d="M 284.277344 398.695313 L 301.765625 398.695313 L 301.765625 417.054688 L 284.277344 417.054688 Z M 284.277344 398.695313 "/>
</clipPath>
<clipPath id="clip6">
  <path d="M 31 304.648438 L 34 304.648438 L 34 383.746094 L 31 383.746094 Z M 31 304.648438 "/>
</clipPath>
<clipPath id="clip7">
  <path d="M 18.949219 377.453125 L 46.511719 377.453125 L 46.511719 404.058594 L 18.949219 404.058594 Z M 18.949219 377.453125 "/>
</clipPath>
<clipPath id="clip8">
  <path d="M 23.828125 381.746094 L 41.632813 381.746094 L 41.632813 399.765625 L 23.828125 399.765625 Z M 23.828125 381.746094 "/>
</clipPath>
<clipPath id="clip9">
  <path d="M 244.125 406 L 286.277344 406 L 286.277344 409 L 244.125 409 Z M 244.125 406 "/>
</clipPath>
<clipPath id="clip10">
  <path d="M 154.878906 407 L 237.183594 407 L 237.183594 410 L 154.878906 410 Z M 154.878906 407 "/>
</clipPath>
<clipPath id="clip11">
  <path d="M 229.332031 399.75 L 246.820313 399.75 L 246.820313 417.769531 L 229.332031 417.769531 Z M 229.332031 399.75 "/>
</clipPath>
<clipPath id="clip12">
  <path d="M 130 391.886719 L 133 391.886719 L 133 410.875 L 130 410.875 Z M 130 391.886719 "/>
</clipPath>
<clipPath id="clip13">
  <path d="M 139 391.886719 L 142 391.886719 L 142 410.875 L 139 410.875 Z M 139 391.886719 "/>
</clipPath>
<clipPath id="clip14">
  <path d="M 148 391.886719 L 151 391.886719 L 151 410.875 L 148 410.875 Z M 148 391.886719 "/>
</clipPath>
<clipPath id="clip15">
  <path d="M 221 411 L 237 411 L 237 428 L 221 428 Z M 221 411 "/>
</clipPath>
<clipPath id="clip16">
  <path d="M 236.714844 414.425781 L 224.003906 427.136719 L 221.175781 424.308594 L 233.882813 411.597656 Z M 236.714844 414.425781 "/>
</clipPath>
<clipPath id="clip17">
  <path d="M 24 282.078125 L 27 282.078125 L 27 301.070313 L 24 301.070313 Z M 24 282.078125 "/>
</clipPath>
<clipPath id="clip18">
  <path d="M 36 282.078125 L 39 282.078125 L 39 301.070313 L 36 301.070313 Z M 36 282.078125 "/>
</clipPath>
<clipPath id="clip19">
  <path d="M 212.457031 417.519531 L 229.945313 417.519531 L 229.945313 435.539063 L 212.457031 435.539063 Z M 212.457031 417.519531 "/>
</clipPath>
<clipPath id="clip20">
  <path d="M 299.765625 406 L 341.917969 406 L 341.917969 409 L 299.765625 409 Z M 299.765625 406 "/>
</clipPath>
<clipPath id="clip21">
  <path d="M 511.988281 407 L 555.949219 407 L 555.949219 410 L 511.988281 410 Z M 511.988281 407 "/>
</clipPath>
<clipPath id="clip22">
  <path d="M 538.085938 388.167969 L 578.546875 388.167969 L 578.546875 428.792969 L 538.085938 428.792969 Z M 538.085938 388.167969 "/>
</clipPath>
<clipPath id="clip23">
  <path d="M 371.164063 407 L 515.589844 407 L 515.589844 410 L 371.164063 410 Z M 371.164063 407 "/>
</clipPath>
<clipPath id="clip24">
  <path d="M 557 337.363281 L 560 337.363281 L 560 389.992188 L 557 389.992188 Z M 557 337.363281 "/>
</clipPath>
<clipPath id="clip25">
  <path d="M 544.734375 395.382813 L 571.898438 395.382813 L 571.898438 421.941406 L 544.734375 421.941406 Z M 544.734375 395.382813 "/>
</clipPath>
<clipPath id="clip26">
  <path d="M 553 313.0625 L 556 313.0625 L 556 332.777344 L 553 332.777344 Z M 553 313.0625 "/>
</clipPath>
<clipPath id="clip27">
  <path d="M 562 312.417969 L 565 312.417969 L 565 333.425781 L 562 333.425781 Z M 562 312.417969 "/>
</clipPath>
<clipPath id="clip28">
  <path d="M 509 132 L 539 132 L 539 162 L 509 162 Z M 509 132 "/>
</clipPath>
<clipPath id="clip29">
  <path d="M 512.191406 132.144531 L 538.769531 158.722656 L 535.9375 161.550781 L 509.359375 134.972656 Z M 512.191406 132.144531 "/>
</clipPath>
<clipPath id="clip30">
  <path d="M 504.359375 125.03125 L 520.355469 125.03125 L 520.355469 142.085938 L 504.359375 142.085938 Z M 504.359375 125.03125 "/>
</clipPath>
</defs>
<g id="surface1">
<rect x="0" y="0" width="595.2755" height="841.8898" style="fill:rgb(100%,100%,100%);fill-opacity:1;stroke:none;"/>
<g clip-path="url(#clip1)" clip-rule="nonzero">
<path style="fill:none;stroke-width:2;stroke-linecap:butt;stroke-linejoin:miter;stroke:rgb(100%,39.215088%,30.587769%);stroke-opacity:1;stroke-miterlimit:4;" d="M 0.0016625 0.00051875 L 57.763381 0.00051875 " transform="matrix(1,0,0,1,566.1624,159.1362)"/>
</g>
<g clip-path="url(#clip2)" clip-rule="nonzero">
<path style="fill:none;stroke-width:2;stroke-linecap:butt;stroke-linejoin:miter;stroke:rgb(100%,39.215088%,30.587769%);stroke-opacity:1;stroke-miterlimit:4;" d="M 0.0003125 -0.0013375 L 191.890937 -0.0013375 " transform="matrix(0,1,-1,0,293.0221,328.0075)"/>
</g>
<g clip-path="url(#clip3)" clip-rule="nonzero">
<g clip-path="url(#clip4)" clip-rule="nonzero">
<path style="fill:none;stroke-width:2;stroke-linecap:butt;stroke-linejoin:miter;stroke:rgb(100%,39.215088%,30.587769%);stroke-opacity:1;stroke-miterlimit:4;" d="M 0.00092049 -0.000522857 L 88.789408 0.000986175 " transform="matrix(0.979156,0.203108,-0.203108,0.979156,37.74118,391.7347)"/>
</g>
</g>
<path style=" stroke:none;fill-rule:nonzero;fill:rgb(100%,100%,100%);fill-opacity:1;" d="M 297.789063 412.953125 C 300.425781 410.148438 300.425781 405.601563 297.789063 402.796875 C 295.15625 399.996094 290.886719 399.996094 288.253906 402.796875 C 285.621094 405.601563 285.621094 410.148438 288.253906 412.953125 C 290.886719 415.757813 295.15625 415.757813 297.789063 412.953125 Z M 297.789063 412.953125 "/>
<g clip-path="url(#clip5)" clip-rule="nonzero">
<path style="fill:none;stroke-width:2;stroke-linecap:butt;stroke-linejoin:miter;stroke:rgb(100%,39.215088%,30.587769%);stroke-opacity:1;stroke-miterlimit:4;" d="M 11.510563 12.257225 C 14.147281 9.452537 14.147281 4.905662 11.510563 2.100975 C 8.87775 -0.699806 4.608219 -0.699806 1.975406 2.100975 C -0.657406 4.905662 -0.657406 9.452537 1.975406 12.257225 C 4.608219 15.061912 8.87775 15.061912 11.510563 12.257225 Z M 11.510563 12.257225 " transform="matrix(1,0,0,1,286.2785,400.6959)"/>
</g>
<g clip-path="url(#clip6)" clip-rule="nonzero">
<path style="fill:none;stroke-width:2;stroke-linecap:butt;stroke-linejoin:miter;stroke:rgb(100%,39.215088%,30.587769%);stroke-opacity:1;stroke-miterlimit:4;" d="M 0.0013375 0.00031125 L 77.098994 0.00031125 " transform="matrix(0,1,-1,0,32.73078,305.6471)"/>
</g>
<path style=" stroke:none;fill-rule:nonzero;fill:rgb(100%,100%,100%);fill-opacity:1;" d="M 41.0625 398.75 C 45.664063 394.335938 45.664063 387.175781 41.0625 382.761719 C 36.460938 378.347656 29 378.347656 24.398438 382.761719 C 19.800781 387.175781 19.800781 394.335938 24.398438 398.75 C 29 403.164063 36.460938 403.164063 41.0625 398.75 Z M 41.0625 398.75 "/>
<g clip-path="url(#clip7)" clip-rule="nonzero">
<path style="fill:none;stroke-width:2;stroke-linecap:butt;stroke-linejoin:miter;stroke:rgb(100%,39.215088%,30.587769%);stroke-opacity:1;stroke-miterlimit:4;" d="M 20.11331 19.2981 C 24.714873 14.884037 24.714873 7.723881 20.11331 3.309819 C 15.511748 -1.104244 8.05081 -1.104244 3.449248 3.309819 C -1.148409 7.723881 -1.148409 14.884037 3.449248 19.2981 C 8.05081 23.712162 15.511748 23.712162 20.11331 19.2981 Z M 20.11331 19.2981 " transform="matrix(1,0,0,1,20.94919,379.4519)"/>
</g>
<path style=" stroke:none;fill-rule:nonzero;fill:rgb(100%,100%,100%);fill-opacity:1;" d="M 37.613281 395.710938 C 40.308594 392.972656 40.308594 388.535156 37.613281 385.800781 C 34.914063 383.0625 30.546875 383.0625 27.851563 385.800781 C 25.15625 388.535156 25.15625 392.972656 27.851563 395.710938 C 30.546875 398.449219 34.914063 398.449219 37.613281 395.710938 Z M 37.613281 395.710938 "/>
<g clip-path="url(#clip8)" clip-rule="nonzero">
<path style="fill:none;stroke-width:2;stroke-linecap:butt;stroke-linejoin:miter;stroke:rgb(100%,39.215088%,30.587769%);stroke-opacity:1;stroke-miterlimit:4;" d="M 11.784901 11.964837 C 14.480214 9.226556 14.480214 4.789056 11.784901 2.054681 C 9.085683 -0.6836 4.718495 -0.6836 2.023183 2.054681 C -0.67213 4.789056 -0.67213 9.226556 2.023183 11.964837 C 4.718495 14.703119 9.085683 14.703119 11.784901 11.964837 Z M 11.784901 11.964837 " transform="matrix(1,0,0,1,25.82838,383.7461)"/>
</g>
<g clip-path="url(#clip9)" clip-rule="nonzero">
<path style="fill:none;stroke-width:2;stroke-linecap:butt;stroke-linejoin:miter;stroke:rgb(100%,39.215088%,30.587769%);stroke-opacity:1;stroke-miterlimit:4;" d="M -0.0013 -0.0006 L 40.151044 -0.0006 " transform="matrix(1,0,0,1,245.1263,407.8756)"/>
</g>
<g clip-path="url(#clip10)" clip-rule="nonzero">
<path style="fill:none;stroke-width:2;stroke-linecap:butt;stroke-linejoin:miter;stroke:rgb(100%,39.215088%,30.587769%);stroke-opacity:1;stroke-miterlimit:4;" d="M -0.00059375 -0.0006 L 80.304094 -0.0006 " transform="matrix(1,0,0,1,155.8795,408.8756)"/>
</g>
<path style=" stroke:none;fill-rule:nonzero;fill:rgb(100%,100%,100%);fill-opacity:1;" d="M 242.84375 413.71875 C 245.480469 410.980469 245.480469 406.542969 242.84375 403.804688 C 240.210938 401.066406 235.941406 401.066406 233.308594 403.804688 C 230.675781 406.542969 230.675781 410.980469 233.308594 413.71875 C 235.941406 416.453125 240.210938 416.453125 242.84375 413.71875 Z M 242.84375 413.71875 "/>
<g clip-path="url(#clip11)" clip-rule="nonzero">
<path style="fill:none;stroke-width:2;stroke-linecap:butt;stroke-linejoin:miter;stroke:rgb(100%,39.215088%,30.587769%);stroke-opacity:1;stroke-miterlimit:4;" d="M 11.51035 11.96715 C 14.147069 9.228869 14.147069 4.791369 11.51035 2.053087 C 8.877537 -0.685194 4.608006 -0.685194 1.975194 2.053087 C -0.657619 4.791369 -0.657619 9.228869 1.975194 11.96715 C 4.608006 14.701525 8.877537 14.701525 11.51035 11.96715 Z M 11.51035 11.96715 " transform="matrix(1,0,0,1,231.3334,401.7516)"/>
</g>
<path style="fill-rule:nonzero;fill:rgb(100%,100%,100%);fill-opacity:1;stroke-width:2;stroke-linecap:butt;stroke-linejoin:miter;stroke:rgb(100%,39.215088%,30.587769%);stroke-opacity:1;stroke-miterlimit:4;" d="M -0.000425 0.00075625 L 34.667544 0.00075625 L 34.667544 35.305444 L -0.000425 35.305444 Z M -0.000425 0.00075625 " transform="matrix(1,0,0,1,123.5473,390.2219)"/>
<path style="fill-rule:nonzero;fill:rgb(100%,100%,100%);fill-opacity:1;stroke-width:2;stroke-linecap:butt;stroke-linejoin:miter;stroke:rgb(100%,39.215088%,30.587769%);stroke-opacity:1;stroke-miterlimit:4;" d="M -0.0004875 0.00020625 L 29.995606 0.00020625 L 29.995606 29.492394 L -0.0004875 29.492394 Z M -0.0004875 0.00020625 " transform="matrix(1,0,0,1,125.8833,393.1287)"/>
<g clip-path="url(#clip12)" clip-rule="nonzero">
<path style="fill:none;stroke-width:2;stroke-linecap:butt;stroke-linejoin:miter;stroke:rgb(100%,39.215088%,30.587769%);stroke-opacity:1;stroke-miterlimit:4;" d="M 0.00121875 -0.0013375 L 16.9895 -0.0013375 " transform="matrix(0,1,-1,0,131.7096,392.8855)"/>
</g>
<g clip-path="url(#clip13)" clip-rule="nonzero">
<path style="fill:none;stroke-width:2;stroke-linecap:butt;stroke-linejoin:miter;stroke:rgb(100%,39.215088%,30.587769%);stroke-opacity:1;stroke-miterlimit:4;" d="M 0.00121875 -0.0014125 L 16.9895 -0.0014125 " transform="matrix(0,1,-1,0,140.8814,392.8855)"/>
</g>
<g clip-path="url(#clip14)" clip-rule="nonzero">
<path style="fill:none;stroke-width:2;stroke-linecap:butt;stroke-linejoin:miter;stroke:rgb(100%,39.215088%,30.587769%);stroke-opacity:1;stroke-miterlimit:4;" d="M 0.00121875 -0.000925 L 16.9895 -0.000925 " transform="matrix(0,1,-1,0,149.7022,392.8855)"/>
</g>
<g clip-path="url(#clip15)" clip-rule="nonzero">
<g clip-path="url(#clip16)" clip-rule="nonzero">
<path style="fill:none;stroke-width:2;stroke-linecap:butt;stroke-linejoin:miter;stroke:rgb(100%,39.215088%,30.587769%);stroke-opacity:1;stroke-miterlimit:4;" d="M -0.00247487 -0.000282843 L 15.973719 -0.000282843 " transform="matrix(-0.707107,0.707107,-0.707107,-0.707107,234.5918,413.7203)"/>
</g>
</g>
<path style="fill-rule:nonzero;fill:rgb(100%,100%,100%);fill-opacity:1;stroke-width:2;stroke-linecap:butt;stroke-linejoin:miter;stroke:rgb(100%,39.215088%,30.587769%);stroke-opacity:1;stroke-miterlimit:4;" d="M 0.001725 -0.000475 L 27.997819 -0.000475 L 27.997819 25.937025 L 0.001725 25.937025 Z M 0.001725 -0.000475 " transform="matrix(1,0,0,1,18.73265,284.0786)"/>
<g clip-path="url(#clip17)" clip-rule="nonzero">
<path style="fill:none;stroke-width:2;stroke-linecap:butt;stroke-linejoin:miter;stroke:rgb(100%,39.215088%,30.587769%);stroke-opacity:1;stroke-miterlimit:4;" d="M -0.000475 0.000255 L 16.991712 0.000255 " transform="matrix(0,1,-1,0,25.82838,283.0786)"/>
</g>
<g clip-path="url(#clip18)" clip-rule="nonzero">
<path style="fill:none;stroke-width:2;stroke-linecap:butt;stroke-linejoin:miter;stroke:rgb(100%,39.215088%,30.587769%);stroke-opacity:1;stroke-miterlimit:4;" d="M -0.000475 -0.0009925 L 16.991712 -0.0009925 " transform="matrix(0,1,-1,0,37.53807,283.0786)"/>
</g>
<path style=" stroke:none;fill-rule:nonzero;fill:rgb(100%,39.215088%,30.587769%);fill-opacity:1;" d="M 34.730469 329.539063 C 35.019531 330.007813 35.019531 330.769531 34.730469 331.238281 C 34.445313 331.707031 33.980469 331.707031 33.691406 331.238281 C 33.402344 330.769531 33.402344 330.007813 33.691406 329.539063 C 33.980469 329.070313 34.445313 329.070313 34.730469 329.539063 Z M 34.730469 329.539063 "/>
<path style=" stroke:none;fill-rule:nonzero;fill:rgb(100%,100%,100%);fill-opacity:1;" d="M 225.96875 431.484375 C 228.601563 428.75 228.601563 424.308594 225.96875 421.574219 C 223.335938 418.835938 219.066406 418.835938 216.433594 421.574219 C 213.800781 424.308594 213.800781 428.75 216.433594 431.484375 C 219.066406 434.222656 223.335938 434.222656 225.96875 431.484375 Z M 225.96875 431.484375 "/>
<g clip-path="url(#clip19)" clip-rule="nonzero">
<path style="fill:none;stroke-width:2;stroke-linecap:butt;stroke-linejoin:miter;stroke:rgb(100%,39.215088%,30.587769%);stroke-opacity:1;stroke-miterlimit:4;" d="M 11.51145 11.964475 C 14.144262 9.2301 14.144262 4.788694 11.51145 2.054319 C 8.878637 -0.683963 4.609106 -0.683963 1.976294 2.054319 C -0.656519 4.788694 -0.656519 9.2301 1.976294 11.964475 C 4.609106 14.702756 8.878637 14.702756 11.51145 11.964475 Z M 11.51145 11.964475 " transform="matrix(1,0,0,1,214.4573,419.5199)"/>
</g>
<g clip-path="url(#clip20)" clip-rule="nonzero">
<path style="fill:none;stroke-width:2;stroke-linecap:butt;stroke-linejoin:miter;stroke:rgb(100%,39.215088%,30.587769%);stroke-opacity:1;stroke-miterlimit:4;" d="M 0.000025 -0.0006 L 40.152369 -0.0006 " transform="matrix(1,0,0,1,300.7656,407.8756)"/>
</g>
<path style="fill-rule:nonzero;fill:rgb(100%,100%,100%);fill-opacity:1;stroke-width:2;stroke-linecap:butt;stroke-linejoin:miter;stroke:rgb(100%,39.215088%,30.587769%);stroke-opacity:1;stroke-miterlimit:4;" d="M 0.00016875 0.0009375 L 29.996263 0.0009375 L 29.996263 29.493125 L 0.00016875 29.493125 Z M 0.00016875 0.0009375 " transform="matrix(1,0,0,1,341.9178,393.46)"/>
<g clip-path="url(#clip21)" clip-rule="nonzero">
<path style="fill:none;stroke-width:2;stroke-linecap:butt;stroke-linejoin:miter;stroke:rgb(100%,39.215088%,30.587769%);stroke-opacity:1;stroke-miterlimit:4;" d="M 0.00038125 -0.0006 L 41.961319 -0.0006 " transform="matrix(1,0,0,1,512.9879,408.8756)"/>
</g>
<path style=" stroke:none;fill-rule:nonzero;fill:rgb(100%,100%,100%);fill-opacity:1;" d="M 571.207031 421.429688 C 578.328125 414.277344 578.328125 402.683594 571.207031 395.53125 C 564.089844 388.378906 552.546875 388.378906 545.425781 395.53125 C 538.308594 402.683594 538.308594 414.277344 545.425781 421.429688 C 552.546875 428.582031 564.089844 428.582031 571.207031 421.429688 Z M 571.207031 421.429688 "/>
<g clip-path="url(#clip22)" clip-rule="nonzero">
<path style="fill:none;stroke-width:2;stroke-linecap:butt;stroke-linejoin:miter;stroke:rgb(100%,39.215088%,30.587769%);stroke-opacity:1;stroke-miterlimit:4;" d="M 31.119431 31.262187 C 38.240525 24.109844 38.240525 12.516094 31.119431 5.36375 C 24.002244 -1.788594 12.459275 -1.788594 5.338181 5.36375 C -1.779006 12.516094 -1.779006 24.109844 5.338181 31.262187 C 12.459275 38.414531 24.002244 38.414531 31.119431 31.262187 Z M 31.119431 31.262187 " transform="matrix(1,0,0,1,540.0876,390.1675)"/>
</g>
<g clip-path="url(#clip23)" clip-rule="nonzero">
<path style="fill:none;stroke-width:2;stroke-linecap:butt;stroke-linejoin:miter;stroke:rgb(100%,39.215088%,30.587769%);stroke-opacity:1;stroke-miterlimit:4;" d="M 0.0013625 -0.0006 L 142.427144 -0.0006 " transform="matrix(1,0,0,1,372.1627,408.8756)"/>
</g>
<g clip-path="url(#clip24)" clip-rule="nonzero">
<path style="fill:none;stroke-width:2;stroke-linecap:butt;stroke-linejoin:miter;stroke:rgb(100%,39.215088%,30.587769%);stroke-opacity:1;stroke-miterlimit:4;" d="M -0.00001875 0.00109375 L 50.628887 0.00109375 " transform="matrix(0,1,-1,0,558.3175,338.3633)"/>
</g>
<path style=" stroke:none;fill-rule:nonzero;fill:rgb(100%,100%,100%);fill-opacity:1;" d="M 566.507813 416.636719 C 571.03125 412.234375 571.03125 405.089844 566.507813 400.6875 C 561.984375 396.28125 554.652344 396.28125 550.128906 400.6875 C 545.605469 405.089844 545.605469 412.234375 550.128906 416.636719 C 554.652344 421.042969 561.984375 421.042969 566.507813 416.636719 Z M 566.507813 416.636719 "/>
<g clip-path="url(#clip25)" clip-rule="nonzero">
<path style="fill:none;stroke-width:2;stroke-linecap:butt;stroke-linejoin:miter;stroke:rgb(100%,39.215088%,30.587769%);stroke-opacity:1;stroke-miterlimit:4;" d="M 19.772312 19.253319 C 24.29575 14.850975 24.29575 7.706444 19.772312 3.3041 C 15.248875 -1.10215 7.916844 -1.10215 3.393406 3.3041 C -1.130031 7.706444 -1.130031 14.850975 3.393406 19.253319 C 7.916844 23.659569 15.248875 23.659569 19.772312 19.253319 Z M 19.772312 19.253319 " transform="matrix(1,0,0,1,546.7355,397.3834)"/>
</g>
<path style="fill-rule:nonzero;fill:rgb(100%,100%,100%);fill-opacity:1;stroke-width:2;stroke-linecap:butt;stroke-linejoin:miter;stroke:rgb(100%,39.215088%,30.587769%);stroke-opacity:1;stroke-miterlimit:4;" d="M 0.00016875 -0.0005875 L 19.996263 -0.0005875 L 19.996263 20.983787 L 0.00016875 20.983787 Z M 0.00016875 -0.0005875 " transform="matrix(1,0,0,1,346.9178,397.3834)"/>
<path style="fill-rule:nonzero;fill:rgb(100%,100%,100%);fill-opacity:1;stroke-width:2;stroke-linecap:butt;stroke-linejoin:miter;stroke:rgb(100%,39.215088%,30.587769%);stroke-opacity:1;stroke-miterlimit:4;" d="M 0.00050625 12.2484 L 11.324725 12.2484 L 11.324725 -0.0016 L 0.00050625 -0.0016 Z M 0.00050625 12.2484 " transform="matrix(1,0,0,1,351.2534,401.7516)"/>
<path style="fill-rule:nonzero;fill:rgb(100%,100%,100%);fill-opacity:1;stroke-width:2;stroke-linecap:butt;stroke-linejoin:miter;stroke:rgb(100%,39.215088%,30.587769%);stroke-opacity:1;stroke-miterlimit:4;" d="M 0.0009125 0.00096875 L 21.997006 0.00096875 L 21.997006 29.540031 L 0.0009125 29.540031 Z M 0.0009125 0.00096875 " transform="matrix(1,0,0,1,548.3194,314.417)"/>
<g clip-path="url(#clip26)" clip-rule="nonzero">
<path style="fill:none;stroke-width:2;stroke-linecap:butt;stroke-linejoin:miter;stroke:rgb(100%,39.215088%,30.587769%);stroke-opacity:1;stroke-miterlimit:4;" d="M -0.0016 0.00118125 L 17.713244 0.00118125 " transform="matrix(0,1,-1,0,554.9504,314.0641)"/>
</g>
<g clip-path="url(#clip27)" clip-rule="nonzero">
<path style="fill:none;stroke-width:2;stroke-linecap:butt;stroke-linejoin:miter;stroke:rgb(100%,39.215088%,30.587769%);stroke-opacity:1;stroke-miterlimit:4;" d="M 0.00096875 0.00109375 L 19.008781 0.00109375 " transform="matrix(0,1,-1,0,563.3175,313.417)"/>
</g>
<path style="fill-rule:nonzero;fill:rgb(100%,100%,100%);fill-opacity:1;stroke-width:2;stroke-linecap:butt;stroke-linejoin:miter;stroke:rgb(100%,39.215088%,30.587769%);stroke-opacity:1;stroke-miterlimit:4;" d="M -0.0017 0.001325 L 29.994394 0.001325 L 29.994394 29.493512 L -0.0017 29.493512 Z M -0.0017 0.001325 " transform="matrix(1,0,0,1,536.9392,144.3893)"/>
<path style="fill-rule:nonzero;fill:rgb(100%,100%,100%);fill-opacity:1;stroke-width:2;stroke-linecap:butt;stroke-linejoin:miter;stroke:rgb(100%,39.215088%,30.587769%);stroke-opacity:1;stroke-miterlimit:4;" d="M -0.0017 0.00053125 L 19.994394 0.00053125 L 19.994394 20.984906 L -0.0017 20.984906 Z M -0.0017 0.00053125 " transform="matrix(1,0,0,1,541.9392,148.644)"/>
<path style="fill-rule:nonzero;fill:rgb(100%,100%,100%);fill-opacity:1;stroke-width:2;stroke-linecap:butt;stroke-linejoin:miter;stroke:rgb(100%,39.215088%,30.587769%);stroke-opacity:1;stroke-miterlimit:4;" d="M -0.0013625 12.249519 L 11.326762 12.249519 L 11.326762 -0.00048125 L -0.0013625 -0.00048125 Z M -0.0013625 12.249519 " transform="matrix(1,0,0,1,546.2748,153.0122)"/>
<g clip-path="url(#clip28)" clip-rule="nonzero">
<g clip-path="url(#clip29)" clip-rule="nonzero">
<path style="fill:none;stroke-width:2;stroke-linecap:butt;stroke-linejoin:miter;stroke:rgb(100%,39.215088%,30.587769%);stroke-opacity:1;stroke-miterlimit:4;" d="M -0.00106508 0.00166612 L 35.586292 0.00166612 " transform="matrix(0.707107,0.707107,-0.707107,0.707107,511.4824,134.2652)"/>
</g>
</g>
<path style=" stroke:none;fill-rule:nonzero;fill:rgb(100%,100%,100%);fill-opacity:1;" d="M 516.601563 138.175781 C 518.941406 135.625 518.941406 131.492188 516.601563 128.941406 C 514.257813 126.390625 510.460938 126.390625 508.117188 128.941406 C 505.773438 131.492188 505.773438 135.625 508.117188 138.175781 C 510.460938 140.722656 514.257813 140.722656 516.601563 138.175781 Z M 516.601563 138.175781 "/>
<g clip-path="url(#clip30)" clip-rule="nonzero">
<path style="fill:none;stroke-width:2;stroke-linecap:butt;stroke-linejoin:miter;stroke:rgb(100%,39.215088%,30.587769%);stroke-opacity:1;stroke-miterlimit:4;" d="M 10.242462 11.146081 C 12.582306 8.5953 12.582306 4.462487 10.242462 1.911706 C 7.898712 -0.639075 4.097931 -0.639075 1.758087 1.911706 C -0.585663 4.462487 -0.585663 8.5953 1.758087 11.146081 C 4.097931 13.692956 7.898712 13.692956 10.242462 11.146081 Z M 10.242462 11.146081 " transform="matrix(1,0,0,1,506.3591,127.0297)"/>
</g>
</g>
</svg>
