<?xml version="1.0" encoding="UTF-8"?>
<svg xmlns="http://www.w3.org/2000/svg" xmlns:xlink="http://www.w3.org/1999/xlink" width="595.2755pt" height="841.8898pt" viewBox="0 0 595.2755 841.8898" version="1.1">
<defs>
<clipPath id="clip1">
  <path d="M 565.164063 158 L 595.277344 158 L 595.277344 161 L 565.164063 161 Z M 565.164063 158 "/>
</clipPath>
<clipPath id="clip2">
  <path d="M 292 368.339844 L 295 368.339844 L 295 562.234375 L 292 562.234375 Z M 292 368.339844 "/>
</clipPath>
<clipPath id="clip3">
  <path d="M 36 430 L 127 430 L 127 454 L 36 454 Z M 36 430 "/>
</clipPath>
<clipPath id="clip4">
  <path d="M 37.167969 430.90625 L 126.066406 449.347656 L 125.253906 453.261719 L 36.355469 434.824219 Z M 37.167969 430.90625 "/>
</clipPath>
<clipPath id="clip5">
  <path d="M 284.277344 440.027344 L 301.765625 440.027344 L 301.765625 458.386719 L 284.277344 458.386719 Z M 284.277344 440.027344 "/>
</clipPath>
<clipPath id="clip6">
  <path d="M 31 345.980469 L 34 345.980469 L 34 425.078125 L 31 425.078125 Z M 31 345.980469 "/>
</clipPath>
<clipPath id="clip7">
  <path d="M 18.949219 418.785156 L 46.511719 418.785156 L 46.511719 445.390625 L 18.949219 445.390625 Z M 18.949219 418.785156 "/>
</clipPath>
<clipPath id="clip8">
  <path d="M 23.828125 423.078125 L 41.632813 423.078125 L 41.632813 441.097656 L 23.828125 441.097656 Z M 23.828125 423.078125 "/>
</clipPath>
<clipPath id="clip9">
  <path d="M 244.125 448 L 286.277344 448 L 286.277344 451 L 244.125 451 Z M 244.125 448 "/>
</clipPath>
<clipPath id="clip10">
  <path d="M 154.878906 449 L 237.183594 449 L 237.183594 452 L 154.878906 452 Z M 154.878906 449 "/>
</clipPath>
<clipPath id="clip11">
  <path d="M 229.332031 441.085938 L 246.820313 441.085938 L 246.820313 459.105469 L 229.332031 459.105469 Z M 229.332031 441.085938 "/>
</clipPath>
<clipPath id="clip12">
  <path d="M 130 433.21875 L 133 433.21875 L 133 452.207031 L 130 452.207031 Z M 130 433.21875 "/>
</clipPath>
<clipPath id="clip13">
  <path d="M 139 433.21875 L 142 433.21875 L 142 452.207031 L 139 452.207031 Z M 139 433.21875 "/>
</clipPath>
<clipPath id="clip14">
  <path d="M 148 433.21875 L 151 433.21875 L 151 452.207031 L 148 452.207031 Z M 148 433.21875 "/>
</clipPath>
<clipPath id="clip15">
  <path d="M 221 452 L 237 452 L 237 469 L 221 469 Z M 221 452 "/>
</clipPath>
<clipPath id="clip16">
  <path d="M 236.714844 455.761719 L 224.003906 468.46875 L 221.175781 465.640625 L 233.882813 452.933594 Z M 236.714844 455.761719 "/>
</clipPath>
<clipPath id="clip17">
  <path d="M 24 323.410156 L 27 323.410156 L 27 342.402344 L 24 342.402344 Z M 24 323.410156 "/>
</clipPath>
<clipPath id="clip18">
  <path d="M 36 323.410156 L 39 323.410156 L 39 342.402344 L 36 342.402344 Z M 36 323.410156 "/>
</clipPath>
<clipPath id="clip19">
  <path d="M 212.457031 458.851563 L 229.945313 458.851563 L 229.945313 476.871094 L 212.457031 476.871094 Z M 212.457031 458.851563 "/>
</clipPath>
<clipPath id="clip20">
  <path d="M 299.765625 448 L 341.917969 448 L 341.917969 451 L 299.765625 451 Z M 299.765625 448 "/>
</clipPath>
<clipPath id="clip21">
  <path d="M 511.988281 449 L 555.949219 449 L 555.949219 452 L 511.988281 452 Z M 511.988281 449 "/>
</clipPath>
<clipPath id="clip22">
  <path d="M 538.085938 429.5 L 578.546875 429.5 L 578.546875 470.125 L 538.085938 470.125 Z M 538.085938 429.5 "/>
</clipPath>
<clipPath id="clip23">
  <path d="M 371.164063 449 L 515.589844 449 L 515.589844 452 L 371.164063 452 Z M 371.164063 449 "/>
</clipPath>
<clipPath id="clip24">
  <path d="M 557 378.695313 L 560 378.695313 L 560 431.324219 L 557 431.324219 Z M 557 378.695313 "/>
</clipPath>
<clipPath id="clip25">
  <path d="M 544.734375 436.714844 L 571.898438 436.714844 L 571.898438 463.273438 L 544.734375 463.273438 Z M 544.734375 436.714844 "/>
</clipPath>
<clipPath id="clip26">
  <path d="M 553 354.398438 L 556 354.398438 L 556 374.109375 L 553 374.109375 Z M 553 354.398438 "/>
</clipPath>
<clipPath id="clip27">
  <path d="M 562 353.75 L 565 353.75 L 565 374.757813 L 562 374.757813 Z M 562 353.75 "/>
</clipPath>
<clipPath id="clip28">
  <path d="M 509 132 L 539 132 L 539 162 L 509 162 Z M 509 132 "/>
</clipPath>
<clipPath id="clip29">
  <path d="M 512.191406 132.144531 L 538.769531 158.722656 L 535.9375 161.550781 L 509.359375 134.972656 Z M 512.191406 132.144531 "/>
</clipPath>
<clipPath id="clip30">
  <path d="M 504.359375 125.03125 L 520.355469 125.03125 L 520.355469 142.085938 L 504.359375 142.085938 Z M 504.359375 125.03125 "/>
</clipPath>
</defs>
<g id="surface1">
<rect x="0" y="0" width="595.2755" height="841.8898" style="fill:rgb(100%,100%,100%);fill-opacity:1;stroke:none;"/>
<g clip-path="url(#clip1)" clip-rule="nonzero">
<path style="fill:none;stroke-width:2;stroke-linecap:butt;stroke-linejoin:miter;stroke:rgb(100%,39.215088%,30.587769%);stroke-opacity:1;stroke-miterlimit:4;" d="M 0.0016625 0.00051875 L 57.763381 0.00051875 " transform="matrix(1,0,0,1,566.1624,159.1362)"/>
</g>
<g clip-path="url(#clip2)" clip-rule="nonzero">
<path style="fill:none;stroke-width:2;stroke-linecap:butt;stroke-linejoin:miter;stroke:rgb(100%,39.215088%,30.587769%);stroke-opacity:1;stroke-miterlimit:4;" d="M -0.00105625 -0.0013375 L 191.893475 -0.0013375 " transform="matrix(0,1,-1,0,293.0221,369.3409)"/>
</g>
<g clip-path="url(#clip3)" clip-rule="nonzero">
<g clip-path="url(#clip4)" clip-rule="nonzero">
<path style="fill:none;stroke-width:2;stroke-linecap:butt;stroke-linejoin:miter;stroke:rgb(100%,39.215088%,30.587769%);stroke-opacity:1;stroke-miterlimit:4;" d="M 0.000662796 -0.00176516 L 88.78915 -0.00025613 " transform="matrix(0.979156,0.203108,-0.203108,0.979156,37.74118,433.068)"/>
</g>
</g>
<path style=" stroke:none;fill-rule:nonzero;fill:rgb(100%,100%,100%);fill-opacity:1;" d="M 297.789063 454.285156 C 300.425781 451.480469 300.425781 446.9375 297.789063 444.132813 C 295.15625 441.328125 290.886719 441.328125 288.253906 444.132813 C 285.621094 446.9375 285.621094 451.480469 288.253906 454.285156 C 290.886719 457.089844 295.15625 457.089844 297.789063 454.285156 Z M 297.789063 454.285156 "/>
<g clip-path="url(#clip5)" clip-rule="nonzero">
<path style="fill:none;stroke-width:2;stroke-linecap:butt;stroke-linejoin:miter;stroke:rgb(100%,39.215088%,30.587769%);stroke-opacity:1;stroke-miterlimit:4;" d="M 11.510563 12.255956 C 14.147281 9.451269 14.147281 4.9083 11.510563 2.103612 C 8.87775 -0.701075 4.608219 -0.701075 1.975406 2.103612 C -0.657406 4.9083 -0.657406 9.451269 1.975406 12.255956 C 4.608219 15.060644 8.87775 15.060644 11.510563 12.255956 Z M 11.510563 12.255956 " transform="matrix(1,0,0,1,286.2785,442.0292)"/>
</g>
<g clip-path="url(#clip6)" clip-rule="nonzero">
<path style="fill:none;stroke-width:2;stroke-linecap:butt;stroke-linejoin:miter;stroke:rgb(100%,39.215088%,30.587769%);stroke-opacity:1;stroke-miterlimit:4;" d="M -0.00003125 0.00031125 L 77.097625 0.00031125 " transform="matrix(0,1,-1,0,32.73078,346.9805)"/>
</g>
<path style=" stroke:none;fill-rule:nonzero;fill:rgb(100%,100%,100%);fill-opacity:1;" d="M 41.0625 440.082031 C 45.664063 435.667969 45.664063 428.511719 41.0625 424.097656 C 36.460938 419.679688 29 419.679688 24.398438 424.097656 C 19.800781 428.511719 19.800781 435.667969 24.398438 440.082031 C 29 444.496094 36.460938 444.496094 41.0625 440.082031 Z M 41.0625 440.082031 "/>
<g clip-path="url(#clip7)" clip-rule="nonzero">
<path style="fill:none;stroke-width:2;stroke-linecap:butt;stroke-linejoin:miter;stroke:rgb(100%,39.215088%,30.587769%);stroke-opacity:1;stroke-miterlimit:4;" d="M 20.11331 19.296831 C 24.714873 14.882769 24.714873 7.726519 20.11331 3.312456 C 15.511748 -1.105512 8.05081 -1.105512 3.449248 3.312456 C -1.148409 7.726519 -1.148409 14.882769 3.449248 19.296831 C 8.05081 23.710894 15.511748 23.710894 20.11331 19.296831 Z M 20.11331 19.296831 " transform="matrix(1,0,0,1,20.94919,420.7852)"/>
</g>
<path style=" stroke:none;fill-rule:nonzero;fill:rgb(100%,100%,100%);fill-opacity:1;" d="M 37.613281 437.046875 C 40.308594 434.308594 40.308594 429.871094 37.613281 427.132813 C 34.914063 424.394531 30.546875 424.394531 27.851563 427.132813 C 25.15625 429.871094 25.15625 434.308594 27.851563 437.046875 C 30.546875 439.78125 34.914063 439.78125 37.613281 437.046875 Z M 37.613281 437.046875 "/>
<g clip-path="url(#clip8)" clip-rule="nonzero">
<path style="fill:none;stroke-width:2;stroke-linecap:butt;stroke-linejoin:miter;stroke:rgb(100%,39.215088%,30.587769%);stroke-opacity:1;stroke-miterlimit:4;" d="M 11.784901 11.967375 C 14.480214 9.229094 14.480214 4.791594 11.784901 2.053312 C 9.085683 -0.684969 4.718495 -0.684969 2.023183 2.053312 C -0.67213 4.791594 -0.67213 9.229094 2.023183 11.967375 C 4.718495 14.70175 9.085683 14.70175 11.784901 11.967375 Z M 11.784901 11.967375 " transform="matrix(1,0,0,1,25.82838,425.0795)"/>
</g>
<g clip-path="url(#clip9)" clip-rule="nonzero">
<path style="fill:none;stroke-width:2;stroke-linecap:butt;stroke-linejoin:miter;stroke:rgb(100%,39.215088%,30.587769%);stroke-opacity:1;stroke-miterlimit:4;" d="M -0.0013 -0.00186875 L 40.151044 -0.00186875 " transform="matrix(1,0,0,1,245.1263,449.2089)"/>
</g>
<g clip-path="url(#clip10)" clip-rule="nonzero">
<path style="fill:none;stroke-width:2;stroke-linecap:butt;stroke-linejoin:miter;stroke:rgb(100%,39.215088%,30.587769%);stroke-opacity:1;stroke-miterlimit:4;" d="M -0.00059375 -0.00186875 L 80.304094 -0.00186875 " transform="matrix(1,0,0,1,155.8795,450.2089)"/>
</g>
<path style=" stroke:none;fill-rule:nonzero;fill:rgb(100%,100%,100%);fill-opacity:1;" d="M 242.84375 455.050781 C 245.480469 452.3125 245.480469 447.875 242.84375 445.136719 C 240.210938 442.402344 235.941406 442.402344 233.308594 445.136719 C 230.675781 447.875 230.675781 452.3125 233.308594 455.050781 C 235.941406 457.789063 240.210938 457.789063 242.84375 455.050781 Z M 242.84375 455.050781 "/>
<g clip-path="url(#clip11)" clip-rule="nonzero">
<path style="fill:none;stroke-width:2;stroke-linecap:butt;stroke-linejoin:miter;stroke:rgb(100%,39.215088%,30.587769%);stroke-opacity:1;stroke-miterlimit:4;" d="M 11.51035 11.965881 C 14.147069 9.2276 14.147069 4.7901 11.51035 2.051819 C 8.877537 -0.682556 4.608006 -0.682556 1.975194 2.051819 C -0.657619 4.7901 -0.657619 9.2276 1.975194 11.965881 C 4.608006 14.704162 8.877537 14.704162 11.51035 11.965881 Z M 11.51035 11.965881 " transform="matrix(1,0,0,1,231.3334,443.0849)"/>
</g>
<path style="fill-rule:nonzero;fill:rgb(100%,100%,100%);fill-opacity:1;stroke-width:2;stroke-linecap:butt;stroke-linejoin:miter;stroke:rgb(100%,39.215088%,30.587769%);stroke-opacity:1;stroke-miterlimit:4;" d="M -0.000425 -0.0006125 L 34.667544 -0.0006125 L 34.667544 35.307981 L -0.000425 35.307981 Z M -0.000425 -0.0006125 " transform="matrix(1,0,0,1,123.5473,431.5553)"/>
<path style="fill-rule:nonzero;fill:rgb(100%,100%,100%);fill-opacity:1;stroke-width:2;stroke-linecap:butt;stroke-linejoin:miter;stroke:rgb(100%,39.215088%,30.587769%);stroke-opacity:1;stroke-miterlimit:4;" d="M -0.0004875 -0.0010625 L 29.995606 -0.0010625 L 29.995606 29.495031 L -0.0004875 29.495031 Z M -0.0004875 -0.0010625 " transform="matrix(1,0,0,1,125.8833,434.462)"/>
<g clip-path="url(#clip12)" clip-rule="nonzero">
<path style="fill:none;stroke-width:2;stroke-linecap:butt;stroke-linejoin:miter;stroke:rgb(100%,39.215088%,30.587769%);stroke-opacity:1;stroke-miterlimit:4;" d="M -0.00005 -0.0013375 L 16.988231 -0.0013375 " transform="matrix(0,1,-1,0,131.7096,434.2188)"/>
</g>
<g clip-path="url(#clip13)" clip-rule="nonzero">
<path style="fill:none;stroke-width:2;stroke-linecap:butt;stroke-linejoin:miter;stroke:rgb(100%,39.215088%,30.587769%);stroke-opacity:1;stroke-miterlimit:4;" d="M -0.00005 -0.0014125 L 16.988231 -0.0014125 " transform="matrix(0,1,-1,0,140.8814,434.2188)"/>
</g>
<g clip-path="url(#clip14)" clip-rule="nonzero">
<path style="fill:none;stroke-width:2;stroke-linecap:butt;stroke-linejoin:miter;stroke:rgb(100%,39.215088%,30.587769%);stroke-opacity:1;stroke-miterlimit:4;" d="M -0.00005 -0.000925 L 16.988231 -0.000925 " transform="matrix(0,1,-1,0,149.7022,434.2188)"/>
</g>
<g clip-path="url(#clip15)" clip-rule="nonzero">
<g clip-path="url(#clip16)" clip-rule="nonzero">
<path style="fill:none;stroke-width:2;stroke-linecap:butt;stroke-linejoin:miter;stroke:rgb(100%,39.215088%,30.587769%);stroke-opacity:1;stroke-miterlimit:4;" d="M -0.00060988 -0.00214784 L 15.972821 0.000614299 " transform="matrix(-0.707107,0.707107,-0.707107,-0.707107,234.5918,455.0536)"/>
</g>
</g>
<path style="fill-rule:nonzero;fill:rgb(100%,100%,100%);fill-opacity:1;stroke-width:2;stroke-linecap:butt;stroke-linejoin:miter;stroke:rgb(100%,39.215088%,30.587769%);stroke-opacity:1;stroke-miterlimit:4;" d="M 0.001725 -0.00184375 L 27.997819 -0.00184375 L 27.997819 25.939562 L 0.001725 25.939562 Z M 0.001725 -0.00184375 " transform="matrix(1,0,0,1,18.73265,325.412)"/>
<g clip-path="url(#clip17)" clip-rule="nonzero">
<path style="fill:none;stroke-width:2;stroke-linecap:butt;stroke-linejoin:miter;stroke:rgb(100%,39.215088%,30.587769%);stroke-opacity:1;stroke-miterlimit:4;" d="M -0.00184375 0.000255 L 16.990344 0.000255 " transform="matrix(0,1,-1,0,25.82838,324.412)"/>
</g>
<g clip-path="url(#clip18)" clip-rule="nonzero">
<path style="fill:none;stroke-width:2;stroke-linecap:butt;stroke-linejoin:miter;stroke:rgb(100%,39.215088%,30.587769%);stroke-opacity:1;stroke-miterlimit:4;" d="M -0.00184375 -0.0009925 L 16.990344 -0.0009925 " transform="matrix(0,1,-1,0,37.53807,324.412)"/>
</g>
<path style=" stroke:none;fill-rule:nonzero;fill:rgb(100%,39.215088%,30.587769%);fill-opacity:1;" d="M 34.730469 370.871094 C 35.019531 371.339844 35.019531 372.101563 34.730469 372.570313 C 34.445313 373.039063 33.980469 373.039063 33.691406 372.570313 C 33.402344 372.101563 33.402344 371.339844 33.691406 370.871094 C 33.980469 370.402344 34.445313 370.402344 34.730469 370.871094 Z M 34.730469 370.871094 "/>
<path style=" stroke:none;fill-rule:nonzero;fill:rgb(100%,100%,100%);fill-opacity:1;" d="M 225.96875 472.820313 C 228.601563 470.082031 228.601563 465.644531 225.96875 462.90625 C 223.335938 460.167969 219.066406 460.167969 216.433594 462.90625 C 213.800781 465.644531 213.800781 470.082031 216.433594 472.820313 C 219.066406 475.554688 223.335938 475.554688 225.96875 472.820313 Z M 225.96875 472.820313 "/>
<g clip-path="url(#clip19)" clip-rule="nonzero">
<path style="fill:none;stroke-width:2;stroke-linecap:butt;stroke-linejoin:miter;stroke:rgb(100%,39.215088%,30.587769%);stroke-opacity:1;stroke-miterlimit:4;" d="M 11.51145 11.967112 C 14.144262 9.228831 14.144262 4.791331 11.51145 2.05305 C 8.878637 -0.685231 4.609106 -0.685231 1.976294 2.05305 C -0.656519 4.791331 -0.656519 9.228831 1.976294 11.967112 C 4.609106 14.701487 8.878637 14.701487 11.51145 11.967112 Z M 11.51145 11.967112 " transform="matrix(1,0,0,1,214.4573,460.8532)"/>
</g>
<g clip-path="url(#clip20)" clip-rule="nonzero">
<path style="fill:none;stroke-width:2;stroke-linecap:butt;stroke-linejoin:miter;stroke:rgb(100%,39.215088%,30.587769%);stroke-opacity:1;stroke-miterlimit:4;" d="M 0.000025 -0.00186875 L 40.152369 -0.00186875 " transform="matrix(1,0,0,1,300.7656,449.2089)"/>
</g>
<path style="fill-rule:nonzero;fill:rgb(100%,100%,100%);fill-opacity:1;stroke-width:2;stroke-linecap:butt;stroke-linejoin:miter;stroke:rgb(100%,39.215088%,30.587769%);stroke-opacity:1;stroke-miterlimit:4;" d="M 0.00016875 -0.00043125 L 29.996263 -0.00043125 L 29.996263 29.495662 L 0.00016875 29.495662 Z M 0.00016875 -0.00043125 " transform="matrix(1,0,0,1,341.9178,434.7934)"/>
<g clip-path="url(#clip21)" clip-rule="nonzero">
<path style="fill:none;stroke-width:2;stroke-linecap:butt;stroke-linejoin:miter;stroke:rgb(100%,39.215088%,30.587769%);stroke-opacity:1;stroke-miterlimit:4;" d="M 0.00038125 -0.00186875 L 41.961319 -0.00186875 " transform="matrix(1,0,0,1,512.9879,450.2089)"/>
</g>
<path style=" stroke:none;fill-rule:nonzero;fill:rgb(100%,100%,100%);fill-opacity:1;" d="M 571.207031 462.761719 C 578.328125 455.613281 578.328125 444.015625 571.207031 436.863281 C 564.089844 429.714844 552.546875 429.714844 545.425781 436.863281 C 538.308594 444.015625 538.308594 455.613281 545.425781 462.761719 C 552.546875 469.914063 564.089844 469.914063 571.207031 462.761719 Z M 571.207031 462.761719 "/>
<g clip-path="url(#clip22)" clip-rule="nonzero">
<path style="fill:none;stroke-width:2;stroke-linecap:butt;stroke-linejoin:miter;stroke:rgb(100%,39.215088%,30.587769%);stroke-opacity:1;stroke-miterlimit:4;" d="M 31.119431 31.260919 C 38.240525 24.112481 38.240525 12.514825 31.119431 5.362481 C 24.002244 -1.789863 12.459275 -1.789863 5.338181 5.362481 C -1.779006 12.514825 -1.779006 24.112481 5.338181 31.260919 C 12.459275 38.413262 24.002244 38.413262 31.119431 31.260919 Z M 31.119431 31.260919 " transform="matrix(1,0,0,1,540.0876,431.5008)"/>
</g>
<g clip-path="url(#clip23)" clip-rule="nonzero">
<path style="fill:none;stroke-width:2;stroke-linecap:butt;stroke-linejoin:miter;stroke:rgb(100%,39.215088%,30.587769%);stroke-opacity:1;stroke-miterlimit:4;" d="M 0.0013625 -0.00186875 L 142.427144 -0.00186875 " transform="matrix(1,0,0,1,372.1627,450.2089)"/>
</g>
<g clip-path="url(#clip24)" clip-rule="nonzero">
<path style="fill:none;stroke-width:2;stroke-linecap:butt;stroke-linejoin:miter;stroke:rgb(100%,39.215088%,30.587769%);stroke-opacity:1;stroke-miterlimit:4;" d="M -0.0012875 0.00109375 L 50.627619 0.00109375 " transform="matrix(0,1,-1,0,558.3175,379.6966)"/>
</g>
<path style=" stroke:none;fill-rule:nonzero;fill:rgb(100%,100%,100%);fill-opacity:1;" d="M 566.507813 457.96875 C 571.03125 453.566406 571.03125 446.425781 566.507813 442.019531 C 561.984375 437.617188 554.652344 437.617188 550.128906 442.019531 C 545.605469 446.425781 545.605469 453.566406 550.128906 457.96875 C 554.652344 462.375 561.984375 462.375 566.507813 457.96875 Z M 566.507813 457.96875 "/>
<g clip-path="url(#clip25)" clip-rule="nonzero">
<path style="fill:none;stroke-width:2;stroke-linecap:butt;stroke-linejoin:miter;stroke:rgb(100%,39.215088%,30.587769%);stroke-opacity:1;stroke-miterlimit:4;" d="M 19.772312 19.25205 C 24.29575 14.849706 24.29575 7.709081 19.772312 3.302831 C 15.248875 -1.099513 7.916844 -1.099513 3.393406 3.302831 C -1.130031 7.709081 -1.130031 14.849706 3.393406 19.25205 C 7.916844 23.6583 15.248875 23.6583 19.772312 19.25205 Z M 19.772312 19.25205 " transform="matrix(1,0,0,1,546.7355,438.7167)"/>
</g>
<path style="fill-rule:nonzero;fill:rgb(100%,100%,100%);fill-opacity:1;stroke-width:2;stroke-linecap:butt;stroke-linejoin:miter;stroke:rgb(100%,39.215088%,30.587769%);stroke-opacity:1;stroke-miterlimit:4;" d="M 0.00016875 -0.00185625 L 19.996263 -0.00185625 L 19.996263 20.982519 L 0.00016875 20.982519 Z M 0.00016875 -0.00185625 " transform="matrix(1,0,0,1,346.9178,438.7167)"/>
<path style="fill-rule:nonzero;fill:rgb(100%,100%,100%);fill-opacity:1;stroke-width:2;stroke-linecap:butt;stroke-linejoin:miter;stroke:rgb(100%,39.215088%,30.587769%);stroke-opacity:1;stroke-miterlimit:4;" d="M 0.00050625 12.247131 L 11.324725 12.247131 L 11.324725 0.0010375 L 0.00050625 0.0010375 Z M 0.00050625 12.247131 " transform="matrix(1,0,0,1,351.2534,443.0849)"/>
<path style="fill-rule:nonzero;fill:rgb(100%,100%,100%);fill-opacity:1;stroke-width:2;stroke-linecap:butt;stroke-linejoin:miter;stroke:rgb(100%,39.215088%,30.587769%);stroke-opacity:1;stroke-miterlimit:4;" d="M 0.0009125 -0.0003 L 21.997006 -0.0003 L 21.997006 29.542669 L 0.0009125 29.542669 Z M 0.0009125 -0.0003 " transform="matrix(1,0,0,1,548.3194,355.7503)"/>
<g clip-path="url(#clip26)" clip-rule="nonzero">
<path style="fill:none;stroke-width:2;stroke-linecap:butt;stroke-linejoin:miter;stroke:rgb(100%,39.215088%,30.587769%);stroke-opacity:1;stroke-miterlimit:4;" d="M 0.0010375 0.00118125 L 17.711975 0.00118125 " transform="matrix(0,1,-1,0,554.9504,355.3974)"/>
</g>
<g clip-path="url(#clip27)" clip-rule="nonzero">
<path style="fill:none;stroke-width:2;stroke-linecap:butt;stroke-linejoin:miter;stroke:rgb(100%,39.215088%,30.587769%);stroke-opacity:1;stroke-miterlimit:4;" d="M -0.0003 0.00109375 L 19.007512 0.00109375 " transform="matrix(0,1,-1,0,563.3175,354.7503)"/>
</g>
<path style="fill-rule:nonzero;fill:rgb(100%,100%,100%);fill-opacity:1;stroke-width:2;stroke-linecap:butt;stroke-linejoin:miter;stroke:rgb(100%,39.215088%,30.587769%);stroke-opacity:1;stroke-miterlimit:4;" d="M -0.0017 0.001325 L 29.994394 0.001325 L 29.994394 29.493512 L -0.0017 29.493512 Z M -0.0017 0.001325 " transform="matrix(1,0,0,1,536.9392,144.3893)"/>
<path style="fill-rule:nonzero;fill:rgb(100%,100%,100%);fill-opacity:1;stroke-width:2;stroke-linecap:butt;stroke-linejoin:miter;stroke:rgb(100%,39.215088%,30.587769%);stroke-opacity:1;stroke-miterlimit:4;" d="M -0.0017 0.00053125 L 19.994394 0.00053125 L 19.994394 20.984906 L -0.0017 20.984906 Z M -0.0017 0.00053125 " transform="matrix(1,0,0,1,541.9392,148.644)"/>
<path style="fill-rule:nonzero;fill:rgb(100%,100%,100%);fill-opacity:1;stroke-width:2;stroke-linecap:butt;stroke-linejoin:miter;stroke:rgb(100%,39.215088%,30.587769%);stroke-opacity:1;stroke-miterlimit:4;" d="M -0.0013625 12.249519 L 11.326762 12.249519 L 11.326762 -0.00048125 L -0.0013625 -0.00048125 Z M -0.0013625 12.249519 " transform="matrix(1,0,0,1,546.2748,153.0122)"/>
<g clip-path="url(#clip28)" clip-rule="nonzero">
<g clip-path="url(#clip29)" clip-rule="nonzero">
<path style="fill:none;stroke-width:2;stroke-linecap:butt;stroke-linejoin:miter;stroke:rgb(100%,39.215088%,30.587769%);stroke-opacity:1;stroke-miterlimit:4;" d="M -0.00106508 0.00166612 L 35.586292 0.00166612 " transform="matrix(0.707107,0.707107,-0.707107,0.707107,511.4824,134.2652)"/>
</g>
</g>
<path style=" stroke:none;fill-rule:nonzero;fill:rgb(100%,100%,100%);fill-opacity:1;" d="M 516.601563 138.175781 C 518.941406 135.625 518.941406 131.492188 516.601563 128.941406 C 514.257813 126.390625 510.460938 126.390625 508.117188 128.941406 C 505.773438 131.492188 505.773438 135.625 508.117188 138.175781 C 510.460938 140.722656 514.257813 140.722656 516.601563 138.175781 Z M 516.601563 138.175781 "/>
<g clip-path="url(#clip30)" clip-rule="nonzero">
<path style="fill:none;stroke-width:2;stroke-linecap:butt;stroke-linejoin:miter;stroke:rgb(100%,39.215088%,30.587769%);stroke-opacity:1;stroke-miterlimit:4;" d="M 10.242462 11.146081 C 12.582306 8.5953 12.582306 4.462487 10.242462 1.911706 C 7.898712 -0.639075 4.097931 -0.639075 1.758087 1.911706 C -0.585663 4.462487 -0.585663 8.5953 1.758087 11.146081 C 4.097931 13.692956 7.898712 13.692956 10.242462 11.146081 Z M 10.242462 11.146081 " transform="matrix(1,0,0,1,506.3591,127.0297)"/>
</g>
</g>
</svg>
