<?xml version="1.0" encoding="UTF-8"?>
<svg xmlns="http://www.w3.org/2000/svg" xmlns:xlink="http://www.w3.org/1999/xlink" width="595.2755pt" height="841.8898pt" viewBox="0 0 595.2755 841.8898" version="1.1">
<defs>
<clipPath id="clip1">
  <path d="M 477 158 L 502 158 L 502 183 L 477 183 Z M 477 158 "/>
</clipPath>
<clipPath id="clip2">
  <path d="M 501.121094 161.550781 L 479.859375 182.808594 L 477.03125 179.980469 L 498.289063 158.722656 Z M 501.121094 161.550781 "/>
</clipPath>
<clipPath id="clip3">
  <path d="M 507.398438 158 L 567.164063 158 L 567.164063 161 L 507.398438 161 Z M 507.398438 158 "/>
</clipPath>
<clipPath id="clip4">
  <path d="M 494.859375 151.125 L 510.707031 151.125 L 510.707031 167.148438 L 494.859375 167.148438 Z M 494.859375 151.125 "/>
</clipPath>
<clipPath id="clip5">
  <path d="M 461.855469 176.402344 L 482.796875 176.402344 L 482.796875 198.371094 L 461.855469 198.371094 Z M 461.855469 176.402344 "/>
</clipPath>
<clipPath id="clip6">
  <path d="M 501.78125 213 L 532.664063 213 L 532.664063 216 L 501.78125 216 Z M 501.78125 213 "/>
</clipPath>
<clipPath id="clip7">
  <path d="M 512 105 L 569 105 L 569 162 L 512 162 Z M 512 105 "/>
</clipPath>
<clipPath id="clip8">
  <path d="M 515.34375 105.183594 L 568.882813 158.722656 L 566.054688 161.550781 L 512.515625 108.011719 Z M 515.34375 105.183594 "/>
</clipPath>
<clipPath id="clip9">
  <path d="M 480.796875 202.390625 L 506.328125 202.390625 L 506.328125 226.894531 L 480.796875 226.894531 Z M 480.796875 202.390625 "/>
</clipPath>
<clipPath id="clip10">
  <path d="M 565.164063 158 L 595.277344 158 L 595.277344 161 L 565.164063 161 Z M 565.164063 158 "/>
</clipPath>
<clipPath id="clip11">
  <path d="M 478.207031 73.5 L 521.203125 73.5 L 521.203125 117.804688 L 478.207031 117.804688 Z M 478.207031 73.5 "/>
</clipPath>
<clipPath id="clip12">
  <path d="M 529 157 L 575 157 L 575 218 L 529 218 Z M 529 157 "/>
</clipPath>
<clipPath id="clip13">
  <path d="M 529.007813 214.671875 L 570.792969 157.738281 L 574.015625 160.105469 L 532.230469 217.039063 Z M 529.007813 214.671875 "/>
</clipPath>
<clipPath id="clip14">
  <path d="M 445.074219 132.367188 L 467.148438 132.367188 L 467.148438 153.125 L 445.074219 153.125 Z M 445.074219 132.367188 "/>
</clipPath>
<clipPath id="clip15">
  <path d="M 461 144 L 500 144 L 500 161 L 461 161 Z M 461 144 "/>
</clipPath>
<clipPath id="clip16">
  <path d="M 462.847656 144.222656 L 499.152344 156.226563 L 497.894531 160.023438 L 461.59375 148.019531 Z M 462.847656 144.222656 "/>
</clipPath>
<clipPath id="clip17">
  <path d="M 425.15625 205.632813 L 442.644531 205.632813 L 442.644531 223.652344 L 425.15625 223.652344 Z M 425.15625 205.632813 "/>
</clipPath>
<clipPath id="clip18">
  <path d="M 440.644531 213 L 482.796875 213 L 482.796875 216 L 440.644531 216 Z M 440.644531 213 "/>
</clipPath>
<clipPath id="clip19">
  <path d="M 0 168 L 47.457031 168 L 47.457031 171 L 0 171 Z M 0 168 "/>
</clipPath>
<clipPath id="clip20">
  <path d="M 45.457031 154.683594 L 76.109375 154.683594 L 76.109375 184.847656 L 45.457031 184.847656 Z M 45.457031 154.683594 "/>
</clipPath>
<clipPath id="clip21">
  <path d="M 67 176 L 84 176 L 84 192 L 67 192 Z M 67 176 "/>
</clipPath>
<clipPath id="clip22">
  <path d="M 70.785156 176.28125 L 83.089844 188.585938 L 80.261719 191.414063 L 67.957031 179.109375 Z M 70.785156 176.28125 "/>
</clipPath>
<clipPath id="clip23">
  <path d="M 76.257813 186.386719 L 92.101563 186.386719 L 92.101563 202.410156 L 76.257813 202.410156 Z M 76.257813 186.386719 "/>
</clipPath>
<clipPath id="clip24">
  <path d="M 68 140 L 93 140 L 93 165 L 68 165 Z M 68 140 "/>
</clipPath>
<clipPath id="clip25">
  <path d="M 68.664063 161.222656 L 89.6875 140.195313 L 92.515625 143.023438 L 71.492188 164.050781 Z M 68.664063 161.222656 "/>
</clipPath>
<clipPath id="clip26">
  <path d="M 82.078125 132.269531 L 100.125 132.269531 L 100.125 150.953125 L 82.078125 150.953125 Z M 82.078125 132.269531 "/>
</clipPath>
</defs>
<g id="surface1">
<rect x="0" y="0" width="595.2755" height="841.8898" style="fill:rgb(100%,100%,100%);fill-opacity:1;stroke:none;"/>
<g clip-path="url(#clip1)" clip-rule="nonzero">
<g clip-path="url(#clip2)" clip-rule="nonzero">
<path style="fill:none;stroke-width:2;stroke-linecap:butt;stroke-linejoin:miter;stroke:rgb(100%,39.215088%,30.587769%);stroke-opacity:1;stroke-miterlimit:4;" d="M 0.00166612 0.00102972 L 28.064966 0.00102972 " transform="matrix(-0.707107,0.707107,-0.707107,-0.707107,498.998,160.8433)"/>
</g>
</g>
<g clip-path="url(#clip3)" clip-rule="nonzero">
<path style="fill:none;stroke-width:2;stroke-linecap:butt;stroke-linejoin:miter;stroke:rgb(100%,39.215088%,30.587769%);stroke-opacity:1;stroke-miterlimit:4;" d="M 0.0000375 0.00051875 L 57.765663 0.00051875 " transform="matrix(1,0,0,1,508.3984,159.1362)"/>
</g>
<path style=" stroke:none;fill-rule:nonzero;fill:rgb(100%,100%,100%);fill-opacity:1;" d="M 506.96875 154.882813 C 509.285156 157.234375 509.285156 161.039063 506.96875 163.386719 C 504.65625 165.734375 500.90625 165.734375 498.59375 163.386719 C 496.28125 161.039063 496.28125 157.234375 498.59375 154.882813 C 500.90625 152.535156 504.65625 152.535156 506.96875 154.882813 Z M 506.96875 154.882813 "/>
<g clip-path="url(#clip4)" clip-rule="nonzero">
<path style="fill:none;stroke-width:2;stroke-linecap:butt;stroke-linejoin:miter;stroke:rgb(100%,39.215088%,30.587769%);stroke-opacity:1;stroke-miterlimit:4;" d="M 10.11055 1.759112 C 12.426956 4.110675 12.426956 7.915362 10.11055 10.263019 C 7.79805 12.610675 4.04805 12.610675 1.73555 10.263019 C -0.57695 7.915362 -0.57695 4.110675 1.73555 1.759112 C 4.04805 -0.588544 7.79805 -0.588544 10.11055 1.759112 Z M 10.11055 1.759112 " transform="matrix(1,0,0,1,496.8582,153.1237)"/>
</g>
<path style=" stroke:none;fill-rule:nonzero;fill:rgb(100%,100%,100%);fill-opacity:1;" d="M 478.316406 181.03125 C 481.621094 184.542969 481.621094 190.230469 478.316406 193.738281 C 475.007813 197.246094 469.644531 197.246094 466.335938 193.738281 C 463.027344 190.230469 463.027344 184.542969 466.335938 181.03125 C 469.644531 177.523438 475.007813 177.523438 478.316406 181.03125 Z M 478.316406 181.03125 "/>
<g clip-path="url(#clip5)" clip-rule="nonzero">
<path style="fill:none;stroke-width:2;stroke-linecap:butt;stroke-linejoin:miter;stroke:rgb(100%,39.215088%,30.587769%);stroke-opacity:1;stroke-miterlimit:4;" d="M 14.461206 2.62955 C 17.765894 6.141269 17.765894 11.828769 14.461206 15.336581 C 11.152612 18.844394 5.789331 18.844394 2.480737 15.336581 C -0.827856 11.828769 -0.827856 6.141269 2.480737 2.62955 C 5.789331 -0.878263 11.152612 -0.878263 14.461206 2.62955 Z M 14.461206 2.62955 " transform="matrix(1,0,0,1,463.8552,178.4017)"/>
</g>
<g clip-path="url(#clip6)" clip-rule="nonzero">
<path style="fill:none;stroke-width:2;stroke-linecap:butt;stroke-linejoin:miter;stroke:rgb(100%,39.215088%,30.587769%);stroke-opacity:1;stroke-miterlimit:4;" d="M -0.00045 0.00193125 L 28.882363 0.00193125 " transform="matrix(1,0,0,1,502.7817,214.6426)"/>
</g>
<g clip-path="url(#clip7)" clip-rule="nonzero">
<g clip-path="url(#clip8)" clip-rule="nonzero">
<path style="fill:none;stroke-width:2;stroke-linecap:butt;stroke-linejoin:miter;stroke:rgb(100%,39.215088%,30.587769%);stroke-opacity:1;stroke-miterlimit:4;" d="M -0.00112695 0.00068501 L 73.714753 0.00068501 " transform="matrix(0.707107,0.707107,-0.707107,0.707107,514.638,107.305)"/>
</g>
</g>
<path style=" stroke:none;fill-rule:nonzero;fill:rgb(100%,100%,100%);fill-opacity:1;" d="M 501.175781 207.394531 C 505.378906 211.398438 505.378906 217.886719 501.175781 221.890625 C 496.96875 225.898438 490.152344 225.898438 485.949219 221.890625 C 481.746094 217.886719 481.746094 211.398438 485.949219 207.394531 C 490.152344 203.386719 496.96875 203.386719 501.175781 207.394531 Z M 501.175781 207.394531 "/>
<g clip-path="url(#clip9)" clip-rule="nonzero">
<path style="fill:none;stroke-width:2;stroke-linecap:butt;stroke-linejoin:miter;stroke:rgb(100%,39.215088%,30.587769%);stroke-opacity:1;stroke-miterlimit:4;" d="M 18.379981 3.004931 C 22.583106 7.008837 22.583106 13.497119 18.379981 17.501025 C 14.17295 21.508837 7.356544 21.508837 3.153419 17.501025 C -1.049706 13.497119 -1.049706 7.008837 3.153419 3.004931 C 7.356544 -1.002881 14.17295 -1.002881 18.379981 3.004931 Z M 18.379981 3.004931 " transform="matrix(1,0,0,1,482.7958,204.3896)"/>
</g>
<g clip-path="url(#clip10)" clip-rule="nonzero">
<path style="fill:none;stroke-width:2;stroke-linecap:butt;stroke-linejoin:miter;stroke:rgb(100%,39.215088%,30.587769%);stroke-opacity:1;stroke-miterlimit:4;" d="M 0.0016625 0.00051875 L 57.763381 0.00051875 " transform="matrix(1,0,0,1,566.1624,159.1362)"/>
</g>
<path style=" stroke:none;fill-rule:nonzero;fill:rgb(100%,100%,100%);fill-opacity:1;" d="M 513.492188 109.902344 C 521.105469 102.03125 521.105469 89.273438 513.492188 81.402344 C 505.878906 73.53125 493.53125 73.53125 485.917969 81.402344 C 478.304688 89.273438 478.304688 102.03125 485.917969 109.902344 C 493.53125 117.769531 505.878906 117.769531 513.492188 109.902344 Z M 513.492188 109.902344 "/>
<g clip-path="url(#clip11)" clip-rule="nonzero">
<path style="fill:none;stroke-width:2;stroke-linecap:butt;stroke-linejoin:miter;stroke:rgb(100%,39.215088%,30.587769%);stroke-opacity:1;stroke-miterlimit:4;" d="M 33.284587 34.402644 C 40.897869 26.53155 40.897869 13.773737 33.284587 5.902644 C 25.671306 -1.96845 13.32365 -1.96845 5.710369 5.902644 C -1.902913 13.773737 -1.902913 26.53155 5.710369 34.402644 C 13.32365 42.269831 25.671306 42.269831 33.284587 34.402644 Z M 33.284587 34.402644 " transform="matrix(1,0,0,1,480.2076,75.4997)"/>
</g>
<g clip-path="url(#clip12)" clip-rule="nonzero">
<g clip-path="url(#clip13)" clip-rule="nonzero">
<path style="fill:none;stroke-width:2;stroke-linecap:butt;stroke-linejoin:miter;stroke:rgb(100%,39.215088%,30.587769%);stroke-opacity:1;stroke-miterlimit:4;" d="M 0.0007096 0.000766143 L 68.624727 -0.00150042 " transform="matrix(0.591679,-0.806174,0.806174,0.591679,531.2099,215.0509)"/>
</g>
</g>
<path style=" stroke:none;fill-rule:nonzero;fill:rgb(100%,100%,100%);fill-opacity:1;" d="M 462.503906 148.667969 C 466.03125 145.398438 466.03125 140.09375 462.503906 136.820313 C 458.972656 133.550781 453.25 133.550781 449.722656 136.820313 C 446.191406 140.09375 446.191406 145.398438 449.722656 148.667969 C 453.25 151.941406 458.972656 151.941406 462.503906 148.667969 Z M 462.503906 148.667969 "/>
<g clip-path="url(#clip14)" clip-rule="nonzero">
<path style="fill:none;stroke-width:2;stroke-linecap:butt;stroke-linejoin:miter;stroke:rgb(100%,39.215088%,30.587769%);stroke-opacity:1;stroke-miterlimit:4;" d="M 15.430306 14.300969 C 18.95765 11.031437 18.95765 5.72675 15.430306 2.453312 C 11.899056 -0.816219 6.1764 -0.816219 2.649056 2.453312 C -0.882194 5.72675 -0.882194 11.031437 2.649056 14.300969 C 6.1764 17.574406 11.899056 17.574406 15.430306 14.300969 Z M 15.430306 14.300969 " transform="matrix(1,0,0,1,447.0736,134.367)"/>
</g>
<g clip-path="url(#clip15)" clip-rule="nonzero">
<g clip-path="url(#clip16)" clip-rule="nonzero">
<path style="fill:none;stroke-width:2;stroke-linecap:butt;stroke-linejoin:miter;stroke:rgb(100%,39.215088%,30.587769%);stroke-opacity:1;stroke-miterlimit:4;" d="M -0.000697377 0.00149445 L 36.237139 0.00106444 " transform="matrix(0.949453,0.31391,-0.31391,0.949453,463.1691,146.4363)"/>
</g>
</g>
<path style=" stroke:none;fill-rule:nonzero;fill:rgb(100%,100%,100%);fill-opacity:1;" d="M 438.667969 219.597656 C 441.300781 216.863281 441.300781 212.421875 438.667969 209.6875 C 436.035156 206.949219 431.765625 206.949219 429.132813 209.6875 C 426.5 212.421875 426.5 216.863281 429.132813 219.597656 C 431.765625 222.335938 436.035156 222.335938 438.667969 219.597656 Z M 438.667969 219.597656 "/>
<g clip-path="url(#clip17)" clip-rule="nonzero">
<path style="fill:none;stroke-width:2;stroke-linecap:butt;stroke-linejoin:miter;stroke:rgb(100%,39.215088%,30.587769%);stroke-opacity:1;stroke-miterlimit:4;" d="M 11.511369 11.964456 C 14.144181 9.230081 14.144181 4.788675 11.511369 2.0543 C 8.878556 -0.683981 4.609025 -0.683981 1.976212 2.0543 C -0.6566 4.788675 -0.6566 9.230081 1.976212 11.964456 C 4.609025 14.702737 8.878556 14.702737 11.511369 11.964456 Z M 11.511369 11.964456 " transform="matrix(1,0,0,1,427.1566,207.6332)"/>
</g>
<g clip-path="url(#clip18)" clip-rule="nonzero">
<path style="fill:none;stroke-width:2;stroke-linecap:butt;stroke-linejoin:miter;stroke:rgb(100%,39.215088%,30.587769%);stroke-opacity:1;stroke-miterlimit:4;" d="M 0.00083125 0.00193125 L 40.153175 0.00193125 " transform="matrix(1,0,0,1,441.6437,214.6426)"/>
</g>
<g clip-path="url(#clip19)" clip-rule="nonzero">
<path style="fill:none;stroke-width:2;stroke-linecap:butt;stroke-linejoin:miter;stroke:rgb(100%,39.215088%,30.587769%);stroke-opacity:1;stroke-miterlimit:4;" d="M 0 0.000125 L 46.457031 0.000125 " transform="matrix(1,0,0,1,0,169.7655)"/>
</g>
<path style=" stroke:none;fill-rule:nonzero;fill:rgb(100%,100%,100%);fill-opacity:1;" d="M 70.207031 179.015625 C 75.410156 173.90625 75.410156 165.625 70.207031 160.515625 C 65.003906 155.40625 56.566406 155.40625 51.359375 160.515625 C 46.15625 165.625 46.15625 173.90625 51.359375 179.015625 C 56.566406 184.125 65.003906 184.125 70.207031 179.015625 Z M 70.207031 179.015625 "/>
<g clip-path="url(#clip20)" clip-rule="nonzero">
<path style="fill:none;stroke-width:2;stroke-linecap:butt;stroke-linejoin:miter;stroke:rgb(100%,39.215088%,30.587769%);stroke-opacity:1;stroke-miterlimit:4;" d="M 22.749951 22.332625 C 27.953076 17.22325 27.953076 8.942 22.749951 3.832625 C 17.546826 -1.27675 9.109326 -1.27675 3.902295 3.832625 C -1.30083 8.942 -1.30083 17.22325 3.902295 22.332625 C 9.109326 27.442 17.546826 27.442 22.749951 22.332625 Z M 22.749951 22.332625 " transform="matrix(1,0,0,1,47.45708,156.683)"/>
</g>
<g clip-path="url(#clip21)" clip-rule="nonzero">
<g clip-path="url(#clip22)" clip-rule="nonzero">
<path style="fill:none;stroke-width:2;stroke-linecap:butt;stroke-linejoin:miter;stroke:rgb(100%,39.215088%,30.587769%);stroke-opacity:1;stroke-miterlimit:4;" d="M 0.00135676 -0.000446361 L 15.403026 -0.000446361 " transform="matrix(0.707107,0.707107,-0.707107,0.707107,70.07685,178.4017)"/>
</g>
</g>
<path style=" stroke:none;fill-rule:nonzero;fill:rgb(100%,100%,100%);fill-opacity:1;" d="M 88.367188 190.148438 C 90.679688 192.496094 90.679688 196.300781 88.367188 198.648438 C 86.054688 200.996094 82.304688 200.996094 79.992188 198.648438 C 77.679688 196.300781 77.679688 192.496094 79.992188 190.148438 C 82.304688 187.800781 86.054688 187.800781 88.367188 190.148438 Z M 88.367188 190.148438 "/>
<g clip-path="url(#clip23)" clip-rule="nonzero">
<path style="fill:none;stroke-width:2;stroke-linecap:butt;stroke-linejoin:miter;stroke:rgb(100%,39.215088%,30.587769%);stroke-opacity:1;stroke-miterlimit:4;" d="M 10.111027 1.762438 C 12.423527 4.110094 12.423527 7.914781 10.111027 10.262438 C 7.798527 12.610094 4.048527 12.610094 1.736027 10.262438 C -0.576473 7.914781 -0.576473 4.110094 1.736027 1.762438 C 4.048527 -0.585219 7.798527 -0.585219 10.111027 1.762438 Z M 10.111027 1.762438 " transform="matrix(1,0,0,1,78.25616,188.386)"/>
</g>
<g clip-path="url(#clip24)" clip-rule="nonzero">
<g clip-path="url(#clip25)" clip-rule="nonzero">
<path style="fill:none;stroke-width:2;stroke-linecap:butt;stroke-linejoin:miter;stroke:rgb(100%,39.215088%,30.587769%);stroke-opacity:1;stroke-miterlimit:4;" d="M 0.000854715 0.000837038 L 27.73546 -0.0019251 " transform="matrix(0.707107,-0.707107,0.707107,0.707107,70.78396,161.9297)"/>
</g>
</g>
<path style=" stroke:none;fill-rule:nonzero;fill:rgb(100%,100%,100%);fill-opacity:1;" d="M 86.136719 146.800781 C 83.394531 143.933594 83.394531 139.285156 86.136719 136.417969 C 88.878906 133.550781 93.328125 133.550781 96.070313 136.417969 C 98.8125 139.285156 98.8125 143.933594 96.070313 146.800781 C 93.328125 149.667969 88.878906 149.667969 86.136719 146.800781 Z M 86.136719 146.800781 "/>
<g clip-path="url(#clip26)" clip-rule="nonzero">
<path style="fill:none;stroke-width:2;stroke-linecap:butt;stroke-linejoin:miter;stroke:rgb(100%,39.215088%,30.587769%);stroke-opacity:1;stroke-miterlimit:4;" d="M 2.057019 12.531581 C -0.685169 9.664394 -0.685169 5.015956 2.057019 2.148769 C 4.799206 -0.718419 9.248425 -0.718419 11.990613 2.148769 C 14.7328 5.015956 14.7328 9.664394 11.990613 12.531581 C 9.248425 15.398769 4.799206 15.398769 2.057019 12.531581 Z M 2.057019 12.531581 " transform="matrix(1,0,0,1,84.0797,134.2692)"/>
</g>
</g>
</svg>
